<?xml version="1.0" encoding="utf-8"?>
<!-- Generator: Adobe Illustrator 18.0.0, SVG Export Plug-In . SVG Version: 6.00 Build 0)  -->
<svg version="1.1" id="Camada_1" xmlns="http://www.w3.org/2000/svg" xmlns:xlink="http://www.w3.org/1999/xlink" x="0px" y="0px"
	 viewBox="0 0 1024 768" enable-background="new 0 0 1024 768" xml:space="preserve">
<circle fill="#CCCCCC" cx="-933.3" cy="92" r="13"/>
<circle fill="#CCCCCC" cx="-748.5" cy="547" r="13.5"/>
<circle fill="#CCCCCC" cx="-563.9" cy="325" r="13"/>
<circle fill="#CCCCCC" cx="-352.9" cy="72" r="24"/>
<circle fill="#CCCCCC" cx="-228.9" cy="456.6" r="12"/>
<circle fill="#CCCCCC" cx="-430.4" cy="606.6" r="21.3"/>
<text transform="matrix(1 0 0 1 -773.2698 594.6094)" font-family="'MyriadPro-Regular'" font-size="24.2249">Volêi</text>
<text transform="matrix(1 0 0 1 -456.164 654.0024)" font-family="'MyriadPro-Regular'" font-size="24.2249">Golfe</text>
<text transform="matrix(1 0 0 1 -401.1761 121.6101)" font-family="'MyriadPro-Regular'" font-size="24.2249">Basquete</text>
<text transform="matrix(1 0 0 1 -970.5533 135.1098)" font-family="'MyriadPro-Regular'" font-size="24.2249">Futebol</text>
<text transform="matrix(1 0 0 1 -248.6282 499.6759)" font-family="'MyriadPro-Regular'" font-size="24.2249">Surf</text>
<text transform="matrix(1 0 0 1 -601.0637 370.11)" font-family="'MyriadPro-Regular'" font-size="24.2249">Corrida</text>
<circle fill="#A51919" cx="146.7" cy="92" r="13"/>
<circle fill="#CCCCCC" cx="331.5" cy="547" r="13.5"/>
<circle fill="#A51919" cx="516.1" cy="325" r="13"/>
<circle fill="#CCCCCC" cx="727.1" cy="72" r="24"/>
<circle fill="#CCCCCC" cx="851.1" cy="456.6" r="12"/>
<circle fill="#A51919" cx="649.6" cy="606.6" r="21.3"/>
<text transform="matrix(1 0 0 1 306.7305 594.6089)" font-family="'MyriadPro-Regular'" font-size="24.2249">Volêi</text>
<text transform="matrix(1 0 0 1 623.8362 654.002)" font-family="'MyriadPro-Regular'" font-size="24.2249">Golfe</text>
<text transform="matrix(1 0 0 1 678.8241 121.6096)" font-family="'MyriadPro-Regular'" font-size="24.2249">Basquete</text>
<text transform="matrix(1 0 0 1 109.447 135.1093)" font-family="'MyriadPro-Regular'" font-size="24.2249">Futebol</text>
<text transform="matrix(1 0 0 1 831.3721 499.6754)" font-family="'MyriadPro-Regular'" font-size="24.2249">Surf</text>
<line fill="none" stroke="#A51919" stroke-width="3" stroke-miterlimit="10" x1="146.7" y1="92" x2="512" y2="325"/>
<line fill="none" stroke="#A51919" stroke-width="3" stroke-miterlimit="10" x1="516.1" y1="325" x2="649.6" y2="606.6"/>
<text transform="matrix(1 0 0 1 478.9365 370.1095)" font-family="'MyriadPro-Regular'" font-size="24.2249">Corrida</text>
</svg>
