<?xml version="1.0" encoding="utf-8"?>
<!-- Generator: Adobe Illustrator 18.0.0, SVG Export Plug-In . SVG Version: 6.00 Build 0)  -->
<svg version="1.1" id="Camada_1" xmlns="http://www.w3.org/2000/svg" xmlns:xlink="http://www.w3.org/1999/xlink" x="0px" y="0px"
	 viewBox="0 0 1024 768" enable-background="new 0 0 1024 768" xml:space="preserve">
<line fill="none" stroke="#CCCCCC" stroke-width="3" stroke-miterlimit="10" x1="-736.2" y1="92" x2="-653.2" y2="268.8"/>
<line fill="none" stroke="#CCCCCC" stroke-width="3" stroke-miterlimit="10" x1="-276.2" y1="126.8" x2="-193.2" y2="303.6"/>
<line fill="none" stroke="#CCCCCC" stroke-width="3" stroke-miterlimit="10" x1="-513.2" y1="155" x2="-430.2" y2="331.8"/>
<line fill="none" stroke="#CCCCCC" stroke-width="3" stroke-miterlimit="10" x1="-481.2" y1="445.6" x2="-536.2" y2="569.4"/>
<circle fill="#CCCCCC" cx="-430.2" cy="326.6" r="42"/>
<circle fill="#CCCCCC" cx="-480.2" cy="445.6" r="42"/>
<line fill="none" stroke="#CCCCCC" stroke-width="3" stroke-miterlimit="10" x1="-430.2" y1="331.8" x2="-485.2" y2="455.6"/>
<text transform="matrix(1 0 0 1 -446.2709 331.7789)" font-family="'MyriadPro-Regular'" font-size="17.7013">Luta</text>
<text transform="matrix(1 0 0 1 -498.1557 450.7861)" font-family="'MyriadPro-Regular'" font-size="17.7013">Judô</text>
<circle fill="#CCCCCC" cx="-531.2" cy="559.4" r="42"/>
<text transform="matrix(1 0 0 1 -547.4476 564.5979)" font-family="'MyriadPro-Regular'" font-size="17.7013">Polo</text>
<line fill="none" stroke="#CCCCCC" stroke-width="3" stroke-miterlimit="10" x1="-990" y1="141" x2="-893" y2="226.2"/>
<text transform="matrix(1 0 0 1 -1022.0002 68.2465)" font-family="'MyriadPro-Regular'" font-size="43.5">2015</text>
<text transform="matrix(1 0 0 1 -256.9996 138.6094)" font-family="'MyriadPro-Regular'" font-size="39">Dezembro</text>
<circle fill="#D8B91E" cx="-990" cy="141" r="14"/>
<circle fill="#D8B91E" cx="-736.2" cy="92" r="14"/>
<circle fill="#D8B91E" cx="-517.1" cy="155" r="14"/>
<circle fill="#D8B91E" cx="-276.1" cy="127" r="14"/>
<line fill="none" stroke="#CCCCCC" stroke-width="3" stroke-miterlimit="10" x1="-704.2" y1="382.6" x2="-759.2" y2="506.4"/>
<line fill="none" stroke="#D8B91E" stroke-width="3" stroke-miterlimit="10" x1="-985" y1="135.1" x2="-736.2" y2="92"/>
<line fill="none" stroke="#D8B91E" stroke-width="3" stroke-miterlimit="10" x1="-736.2" y1="92" x2="-517.1" y2="155"/>
<line fill="none" stroke="#D8B91E" stroke-width="3" stroke-miterlimit="10" x1="-517.1" y1="155" x2="-276.1" y2="127"/>
<text transform="matrix(0.9869 -0.1613 0.1613 0.9869 -971.0116 126.9995)" font-family="'MyriadPro-Regular'" font-size="39">Setembro</text>
<text transform="matrix(0.9605 0.2783 -0.2783 0.9605 -716.6077 86.2427)" font-family="'MyriadPro-Regular'" font-size="39">Outubro</text>
<text transform="matrix(0.9938 -0.1109 0.1109 0.9938 -494.1379 144.6468)" font-family="'MyriadPro-Regular'" font-size="39">Novembro</text>
<circle fill="#CCCCCC" cx="-893" cy="221" r="42"/>
<circle fill="#CCCCCC" cx="-943" cy="340" r="42"/>
<line fill="none" stroke="#CCCCCC" stroke-width="3" stroke-miterlimit="10" x1="-893" y1="226.2" x2="-948" y2="350"/>
<text transform="matrix(1 0 0 1 -924.048 226.1953)" font-family="'MyriadPro-Regular'" font-size="17.7013">Ciclismo</text>
<text transform="matrix(1 0 0 1 -971.0121 345.2023)" font-family="'MyriadPro-Regular'" font-size="17.7013">Triantlo</text>
<circle fill="#CCCCCC" cx="-653.2" cy="263.6" r="42"/>
<circle fill="#CCCCCC" cx="-703.2" cy="382.6" r="42"/>
<line fill="none" stroke="#CCCCCC" stroke-width="3" stroke-miterlimit="10" x1="-653.2" y1="268.8" x2="-708.2" y2="392.6"/>
<text transform="matrix(1 0 0 1 -673.0941 268.793)" font-family="'MyriadPro-Regular'" font-size="17.7013">Nado</text>
<text transform="matrix(1 0 0 1 -743.2909 387.8001)" font-family="'MyriadPro-Regular'" font-size="17.7013">Canoagem</text>
<circle fill="#CCCCCC" cx="-754.2" cy="496.4" r="42"/>
<text transform="matrix(1 0 0 1 -773.7665 501.6118)" font-family="'MyriadPro-Regular'" font-size="17.7013">Golfe</text>
<line fill="none" stroke="#CCCCCC" stroke-width="3" stroke-miterlimit="10" x1="-244.2" y1="417.4" x2="-299.2" y2="541.2"/>
<circle fill="#CCCCCC" cx="-193.2" cy="298.4" r="42"/>
<circle fill="#CCCCCC" cx="-243.2" cy="417.4" r="42"/>
<line fill="none" stroke="#CCCCCC" stroke-width="3" stroke-miterlimit="10" x1="-193.2" y1="303.6" x2="-248.2" y2="427.4"/>
<text transform="matrix(1 0 0 1 -221.5199 303.5781)" font-family="'MyriadPro-Regular'" font-size="17.7013">Goaball</text>
<text transform="matrix(1 0 0 1 -257.1732 422.5849)" font-family="'MyriadPro-Regular'" font-size="17.7013">Tiro</text>
<circle fill="#CCCCCC" cx="-294.2" cy="531.2" r="42"/>
<text transform="matrix(1 0 0 1 -310.4477 536.3967)" font-family="'MyriadPro-Regular'" font-size="17.7013">Luta</text>
<line fill="none" stroke="#CCCCCC" stroke-width="3" stroke-miterlimit="10" x1="343.8" y1="92" x2="426.8" y2="268.8"/>
<line fill="none" stroke="#CCCCCC" stroke-width="3" stroke-miterlimit="10" x1="803.8" y1="126.8" x2="886.8" y2="303.6"/>
<line fill="none" stroke="#CCCCCC" stroke-width="3" stroke-miterlimit="10" x1="566.8" y1="155" x2="649.8" y2="331.8"/>
<line fill="none" stroke="#CCCCCC" stroke-width="3" stroke-miterlimit="10" x1="598.8" y1="445.6" x2="543.8" y2="569.4"/>
<circle fill="#CCCCCC" cx="649.8" cy="326.6" r="42"/>
<circle fill="#CCCCCC" cx="599.8" cy="445.6" r="42"/>
<line fill="none" stroke="#CCCCCC" stroke-width="3" stroke-miterlimit="10" x1="649.8" y1="331.8" x2="594.8" y2="455.6"/>
<text transform="matrix(1 0 0 1 633.7289 331.7793)" font-family="'MyriadPro-Regular'" font-size="17.7013">Luta</text>
<text transform="matrix(1 0 0 1 581.8441 450.7865)" font-family="'MyriadPro-Regular'" font-size="17.7013">Judô</text>
<circle fill="#CCCCCC" cx="548.8" cy="559.4" r="42"/>
<text transform="matrix(1 0 0 1 532.5521 564.5983)" font-family="'MyriadPro-Regular'" font-size="17.7013">Polo</text>
<line fill="none" stroke="#CCCCCC" stroke-width="3" stroke-miterlimit="10" x1="90" y1="141" x2="187" y2="226.2"/>
<text transform="matrix(1 0 0 1 57.9996 68.2469)" font-family="'MyriadPro-Regular'" font-size="43.5">2015</text>
<text transform="matrix(1 0 0 1 823.0001 138.6098)" font-family="'MyriadPro-Regular'" font-size="39">Dezembro</text>
<circle fill="#D8B91E" cx="90" cy="141" r="14"/>
<circle fill="#D8B91E" cx="343.8" cy="92" r="14"/>
<circle fill="#D8B91E" cx="562.9" cy="155" r="14"/>
<circle fill="#D8B91E" cx="803.9" cy="127" r="14"/>
<line fill="none" stroke="#CCCCCC" stroke-width="3" stroke-miterlimit="10" x1="375.8" y1="382.6" x2="320.8" y2="506.4"/>
<line fill="none" stroke="#D8B91E" stroke-width="3" stroke-miterlimit="10" x1="95" y1="135.1" x2="343.8" y2="92"/>
<line fill="none" stroke="#D8B91E" stroke-width="3" stroke-miterlimit="10" x1="343.8" y1="92" x2="562.9" y2="155"/>
<line fill="none" stroke="#D8B91E" stroke-width="3" stroke-miterlimit="10" x1="562.9" y1="155" x2="803.9" y2="127"/>
<text transform="matrix(0.9869 -0.1613 0.1613 0.9869 108.9882 126.9999)" font-family="'MyriadPro-Regular'" font-size="39">Setembro</text>
<text transform="matrix(0.9605 0.2783 -0.2783 0.9605 363.3923 86.243)" font-family="'MyriadPro-Regular'" font-size="39">Outubro</text>
<text transform="matrix(0.9938 -0.1109 0.1109 0.9938 585.8619 144.6472)" font-family="'MyriadPro-Regular'" font-size="39">Novembro</text>
<circle fill="#CCCCCC" cx="187" cy="221" r="42"/>
<circle fill="#CCCCCC" cx="137" cy="340" r="42"/>
<line fill="none" stroke="#CCCCCC" stroke-width="3" stroke-miterlimit="10" x1="187" y1="226.2" x2="132" y2="350"/>
<text transform="matrix(1 0 0 1 155.9518 226.1957)" font-family="'MyriadPro-Regular'" font-size="17.7013">Ciclismo</text>
<text transform="matrix(1 0 0 1 108.9877 345.2027)" font-family="'MyriadPro-Regular'" font-size="17.7013">Triantlo</text>
<circle fill="#CCCCCC" cx="426.8" cy="263.6" r="42"/>
<circle fill="#CCCCCC" cx="376.8" cy="382.6" r="42"/>
<line fill="none" stroke="#CCCCCC" stroke-width="3" stroke-miterlimit="10" x1="426.8" y1="268.8" x2="371.8" y2="392.6"/>
<text transform="matrix(1 0 0 1 406.9056 268.7934)" font-family="'MyriadPro-Regular'" font-size="17.7013">Nado</text>
<text transform="matrix(1 0 0 1 336.7089 387.8005)" font-family="'MyriadPro-Regular'" font-size="17.7013">Canoagem</text>
<circle fill="#CCCCCC" cx="325.8" cy="496.4" r="42"/>
<text transform="matrix(1 0 0 1 306.2333 501.6122)" font-family="'MyriadPro-Regular'" font-size="17.7013">Golfe</text>
<line fill="none" stroke="#CCCCCC" stroke-width="3" stroke-miterlimit="10" x1="835.8" y1="417.4" x2="780.8" y2="541.2"/>
<circle fill="#CCCCCC" cx="886.8" cy="298.4" r="42"/>
<circle fill="#CCCCCC" cx="836.8" cy="417.4" r="42"/>
<line fill="none" stroke="#CCCCCC" stroke-width="3" stroke-miterlimit="10" x1="886.8" y1="303.6" x2="831.8" y2="427.4"/>
<text transform="matrix(1 0 0 1 858.4799 303.5785)" font-family="'MyriadPro-Regular'" font-size="17.7013">Goaball</text>
<text transform="matrix(1 0 0 1 822.8265 422.5853)" font-family="'MyriadPro-Regular'" font-size="17.7013">Tiro</text>
<circle fill="#CCCCCC" cx="785.8" cy="531.2" r="42"/>
<text transform="matrix(1 0 0 1 769.5521 536.3972)" font-family="'MyriadPro-Regular'" font-size="17.7013">Luta</text>
<g>
	<path fill="#BE1622" d="M121,375.2c2.8,1.1,5.6,2.3,9.4,3.8c-2-2.8-3.9-4.5-4.2-6.4c-0.3-2.1,0.9-4.4,1.5-6.8
		c3.8,3.6,5.7,7.6,2.9,13.7c4.9,0,8.9,0,13.9,0c-2.6-5.8-1.2-9.8,2.5-13.1c2.7,5.5,2.7,5.5-2.1,12.3c3.5-1.1,6.3-2,9.8-3.1
		c-3.9-4.1-3.3-8.1-0.9-11.9c4,3.1,4.4,5,2.1,9.2c-0.4,0.7-0.3,1.7-0.6,3.2c-1.5,0.6-3.8,1.6-6.1,2.6c5.8,0.2,9.7,2.7,11.2,8.6
		c-5.1-1.2-12.7,1.6-12.1-8.6c-3.3,0.9-6,1.6-9,2.5c1.9,2.1,3.4,3.8,4.9,5.6c-0.3,0.4-0.7,0.7-1,1.1c-1.8-1.7-3.7-3.4-5.7-5.3
		c-2,1.9-3.8,3.6-5.7,5.3c-0.3-0.4-0.7-0.7-1-1.1c1.5-1.7,3-3.4,4.9-5.5c-2.8-0.8-5.4-1.6-7.7-2.3c-1.6,2.6-2.5,5.8-4.5,7
		c-2.3,1.4-5.7,1-8.7,1.5c2.1-5.6,2.4-5.8,11.5-8.5c-1.9-0.8-3.3-1.4-4.7-2c-1.4-0.6-2.8-1.2-4.7-2.1c-1.8,8.8-7.9,5-13.2,4.7
		c2.8-4.9,6.6-6.7,12.1-5.1c-0.9-1-1.8-2.1-2.7-3.1c0,0-0.1,0.1-0.1,0.1C115.6,372.6,118.3,374,121,375.2L121,375.2z"/>
	<path fill="#BE1622" d="M175.7,349c-3.3-2.3-6.8-4.4-6.6-9.4c3.4,0.9,7.1,1.4,6.5,6.8c2.5-3.5,1.7-5.3-1.4-7.1
		c-2.3-1.3-3.8-3.9-6.3-6.6c7.2,0.8,7.2,0.8,9.2,4.8c-0.2-1.2-0.4-2.4-0.6-3.7c0,0-0.1,0-0.1,0c0.6-0.3,1.9-0.7,1.9-0.9
		c-0.6-4.1,2.8-5.6,5.5-8.7c-0.2,3.2-0.3,5.6-0.6,7.9c-0.2,1-0.9,2.5-1.6,2.7c-4.9,1.2-3.9,4.8-3.4,8.4c0.8-4.6,3.7-7,7.8-8.2
		c-0.4,6.4-1.5,7.9-7,9.8c-0.8,0.3-1.3,1.6-2,2.4C176.6,348,176.1,348.5,175.7,349C175.6,349,175.7,349,175.7,349z"/>
	<path fill="#BE1622" d="M105.3,363.5c-1.3-0.4-3.1-1.4-3.8-0.9c-3.3,2.2-5.5,0.9-7.7-1.5c-1.1-1.2-2.4-2.2-3.6-3.4
		c4.7-1.8,8.6-1.3,12.1,2.4c-0.8-1.8-1.5-3.7-2.5-5.4c-0.3-0.5-1.6-1.1-2.2-0.9c-3.9,1.5-5.7-0.7-7.2-3.7c-0.7-1.3-1.6-2.6-2.4-3.9
		c6.9-1.2,9,4.8,13.4,8.2c-0.7-4.6,1.9-6.7,6.2-7.8c-0.7,3.4-0.1,7.1-4.2,8.9c-0.6,0.3-0.9,2.1-0.6,3c0.5,1.8,1.6,3.4,2.5,5
		L105.3,363.5z"/>
	<path fill="#BE1622" d="M105.2,363.6c0.2-0.6,0.8-1.3,0.7-1.7c-2-4.6,0.7-6.9,4.2-8.8c1.4,4.8,1.1,5.7-4.2,11.8
		c1.9,1.5,3.9,3,5.9,4.5c-2.5-4.9-0.7-8.2,3.8-10.9c0.7,3.9,1.7,7.6-2,10.6c-0.5,0.4-0.4,1.4-0.6,2.1c0,0,0.1-0.1,0.1-0.1
		c-1.3-0.7-2.6-1.4-4.3-2.4c-4.1,7.7-8.8,2.2-14.2,0.4c2.7-1.3,4.8-3,7-3.1c2-0.1,4.2,1.4,6.8,2.3c-1.2-2-2.1-3.4-3-4.9
		C105.3,363.5,105.2,363.6,105.2,363.6z"/>
	<path fill="#BE1622" d="M174.6,354.2c-0.6,2.1-1.2,4.2-2.1,7.5c3.5-4.6,7.2-6.3,12.2-3.8c-2,1.8-3.9,3.7-6,5.4
		c-0.6,0.5-1.9,0.8-2.5,0.4c-3.4-2.2-6.1-2.2-8.2,1.8c0.2-0.6,0.4-1.3,0.5-1.9c0,0-0.1,0.1-0.1,0.1c1.6-2.1,3.3-4.1,5.3-6.7
		c-4.6-2.2-6.6-5.6-6.1-10.4c3.2,1.4,6.8,2.4,5.7,7.3C173.3,353.9,174.2,354.1,174.6,354.2L174.6,354.2z"/>
	<path fill="#BE1622" d="M97.8,336c-0.1,0.6-0.1,1.2-0.2,1.8c1.3-3.9,4.4-4.8,8-5c-0.7,4.9-4.1,7.1-8.5,8.1c0.3-2.6-0.2-4.7-3.5-5.9
		c-1.1-0.4-1.7-3.1-2.1-4.8c-0.3-1.5-0.1-3.2-0.1-5.2c3.1,2.5,5.8,4.6,5.4,8.7C96.7,334.5,97.5,335.4,97.8,336
		C97.8,336.1,97.8,336,97.8,336z"/>
	<path fill="#BE1622" d="M176.5,334c-0.3-0.5-0.7-1.3-1-1.3c-4.1-0.1-5.9-3.1-8-6.9c3,0.7,5.4,1.2,7.7,1.8c0.7-3.1,1.6-7.1,2.5-11
		c0.4,0.1,0.9,0.1,1.3,0.2c0.5,2,1,4.1,1.3,6.2c0.1,1,0.2,2.6-0.3,2.9C176.8,327.7,177,331,176.5,334C176.5,334,176.5,334,176.5,334
		z"/>
	<path fill="#BE1622" d="M171.7,317.4c0.2-2.7,0.4-5.4,0.6-8.1c2.6,3.7,6.1,7,2.1,11.6c-0.7,0.7-0.1,2.5-0.1,3.9
		c-4.3,1.5-6.7-1.3-9.5-5c2.9,0.2,5.1,0.3,7.6,0.4c0-0.1,0-0.8,0-1.5C172.1,318.2,171.9,317.8,171.7,317.4z"/>
	<path fill="#BE1622" d="M171.7,317.4c0.2,0.4,0.5,0.8,0.7,1.2c-4.1,0.3-8.1,0.3-11-4.2c2.2-0.2,4.1-0.5,6.3-0.7
		c-0.2-0.6-0.4-1.2-0.7-1.9c-0.2-0.2-0.4-0.5-0.5-0.7c-0.3-2.5-0.5-4.9-0.9-8.4c3.4,3.8,7,6.3,4.6,11.4
		C169.8,314.8,171.1,316.3,171.7,317.4z"/>
	<path fill="#BE1622" d="M103,317.7c0.7-1.2,2.3-2.9,2-3.4c-2.9-5,1-7.4,4.4-10.3c-0.4,2.7-0.7,5.3-1.1,8c0,0,0.1-0.1,0.1-0.1
		c-0.6,0.3-1.2,0.6-1.8,0.8c0.2,0.3,0.4,0.6,0.6,0.9c2,0.2,4,0.5,6.2,0.8c-3.7,4.8-5.8,5.4-10.2,3.2
		C103.1,317.6,103,317.7,103,317.7z"/>
	<path fill="#BE1622" d="M180.9,369c-3.8,1.6-6.5,3.6-9.1,3.5c-2.4-0.1-4.7-2.5-7.2-3.9c2.7-0.9,5.1-2.4,7.5-2.3
		C174.8,366.3,177.3,367.8,180.9,369z"/>
	<path fill="#BE1622" d="M158.7,375.3c5.4-2.5,9.4-1.3,12.3,3.5C164.3,382.1,160.7,381.1,158.7,375.3z"/>
	<path fill="#BE1622" d="M88.5,335c5.6,2.4,9.7,7.6,9.6,11c-0.2-0.1-1.1-1.1-1.9-1c-5.3,0.3-6-3.7-7-7.4
		C88.9,336.8,88.7,336,88.5,335z"/>
	<path fill="#BE1622" d="M166.5,311.1c0.2,0.2,0.4,0.5,0.5,0.7c-3.9,2.9-7,0.9-10.4-1.8c1.7-0.6,3.2-1,4.6-1.5
		c-0.7-1.8-1.3-3.5-2.2-5.8c3.3,1.5,6,2.6,5.7,6.4C164.8,309.8,165.9,310.5,166.5,311.1z"/>
	<path fill="#BE1622" d="M108.2,312c0.6-0.9,1.6-1.7,1.9-2.7c1.1-4.1,1.1-4.2,5.8-6.7c-0.9,2.3-1.6,4.1-2.3,5.9
		c1.3,0.4,2.8,0.8,4.3,1.3C114.2,313.9,112.8,314.2,108.2,312C108.3,311.9,108.2,312,108.2,312z"/>
	<path fill="#BE1622" d="M100,325.9c-0.1,0.9-0.2,1.8-0.3,2.8c-0.2,0.6-0.5,1.2-0.7,1.8c-0.4-0.6-0.7-1.4-1.3-1.8
		c-5.5-3.5-2.6-7.9-1-12.2c1.1,3.2,2.2,6.4,3.3,9.6C100.1,326,100,325.9,100,325.9z"/>
	<path fill="#BE1622" d="M121,375.3c-4.6-5.8-4.6-5.8-0.1-12.1c2.9,6,2.9,6,0,12C121,375.2,121,375.3,121,375.3z"/>
	<path fill="#BE1622" d="M162.2,369.5c-4.6-2.5-3.7-6.5-2.7-10.5C165,362,165.5,363.8,162.2,369.5z"/>
	<path fill="#BE1622" d="M101.8,321.8c-4.3-4.8-4.3-5.2,0-12.3c0.4,0,0.8,0,1.1,0c0,2.7,0,5.5,0,8.2c0,0,0.1-0.1,0.1-0.2
		c-0.1,1.1-0.2,2.1-0.4,3.2C102.4,321.1,102.1,321.5,101.8,321.8z"/>
	<path fill="#BE1622" d="M168.5,363.5c-4.9-2.2-4.3-6.5-4.2-10.6C170.4,356.4,170.6,356.9,168.5,363.5
		C168.4,363.6,168.5,363.5,168.5,363.5z"/>
	<path fill="#BE1622" d="M101.8,321.8c0.3-0.4,0.6-0.7,0.9-1.1c2.2-0.4,4.5-0.9,7.2-1.4c-2,5.3-6.2,5.5-9.9,6.6c0,0,0.1,0.1,0.1,0.1
		C100.7,324.6,101.2,323.2,101.8,321.8z"/>
	<path fill="#BE1622" d="M99,330.4c0.2-0.6,0.5-1.2,0.7-1.8c2.3-1.1,4.5-2.1,6.8-3.2c0.2,0.4,0.4,0.7,0.6,1.1
		c-1.8,2.6-3,5.8-7.1,6.1c-0.8,0.1-1.5,2.2-2.2,3.4c0,0,0.1,0.1,0.1,0.1C98.2,334.2,98.6,332.3,99,330.4z"/>
	<path fill="#BE1622" d="M99.3,347.9c0-6.2,0.2-6.5,6.8-8.1C105,343.7,104.4,347.6,99.3,347.9z"/>
</g>
<g>
	<path fill="#BE1622" d="M310.8,531.7c2.8,1.1,5.6,2.3,9.4,3.8c-2-2.8-3.9-4.5-4.2-6.4c-0.3-2.1,0.9-4.4,1.5-6.8
		c3.8,3.6,5.7,7.6,2.9,13.7c4.9,0,8.9,0,13.9,0c-2.6-5.8-1.2-9.8,2.5-13.1c2.7,5.5,2.7,5.5-2.1,12.3c3.5-1.1,6.3-2,9.8-3.1
		c-3.9-4.1-3.3-8.1-0.9-11.9c4,3.1,4.4,5,2.1,9.2c-0.4,0.7-0.3,1.7-0.6,3.2c-1.5,0.6-3.8,1.6-6.1,2.6c5.8,0.2,9.7,2.7,11.2,8.6
		c-5.1-1.2-12.7,1.6-12.1-8.6c-3.3,0.9-6,1.6-9,2.5c1.9,2.1,3.4,3.8,4.9,5.6c-0.3,0.4-0.7,0.7-1,1.1c-1.8-1.7-3.7-3.4-5.7-5.3
		c-2,1.9-3.8,3.6-5.7,5.3c-0.3-0.4-0.7-0.7-1-1.1c1.5-1.7,3-3.4,4.9-5.5c-2.8-0.8-5.4-1.6-7.7-2.3c-1.6,2.6-2.5,5.8-4.5,7
		c-2.3,1.4-5.7,1-8.7,1.5c2.1-5.6,2.4-5.8,11.5-8.5c-1.9-0.8-3.3-1.4-4.7-2c-1.4-0.6-2.8-1.2-4.7-2.1c-1.8,8.8-7.9,5-13.2,4.7
		c2.8-4.9,6.6-6.7,12.1-5.1c-0.9-1-1.8-2.1-2.7-3.1c0,0-0.1,0.1-0.1,0.1C305.5,529,308.2,530.4,310.8,531.7L310.8,531.7z"/>
	<path fill="#BE1622" d="M365.5,505.4c-3.3-2.3-6.8-4.4-6.6-9.4c3.4,0.9,7.1,1.4,6.5,6.8c2.5-3.5,1.7-5.3-1.4-7.1
		c-2.3-1.3-3.8-3.9-6.3-6.6c7.2,0.8,7.2,0.8,9.2,4.8c-0.2-1.2-0.4-2.4-0.6-3.7c0,0-0.1,0-0.1,0c0.6-0.3,1.9-0.7,1.9-0.9
		c-0.6-4.1,2.8-5.6,5.5-8.7c-0.2,3.2-0.3,5.6-0.6,7.9c-0.2,1-0.9,2.5-1.6,2.7c-4.9,1.2-3.9,4.8-3.4,8.4c0.8-4.6,3.7-7,7.8-8.2
		c-0.4,6.4-1.5,7.9-7,9.8c-0.8,0.3-1.3,1.6-2,2.4C366.4,504.4,365.9,504.9,365.5,505.4C365.5,505.4,365.5,505.4,365.5,505.4z"/>
	<path fill="#BE1622" d="M295.1,519.9c-1.3-0.4-3.1-1.4-3.8-0.9c-3.3,2.2-5.5,0.9-7.7-1.5c-1.1-1.2-2.4-2.2-3.6-3.4
		c4.7-1.8,8.6-1.3,12.1,2.4c-0.8-1.8-1.5-3.7-2.5-5.4c-0.3-0.5-1.6-1.1-2.2-0.9c-3.9,1.5-5.7-0.7-7.2-3.7c-0.7-1.3-1.6-2.6-2.4-3.9
		c6.9-1.2,9,4.8,13.4,8.2c-0.7-4.6,1.9-6.7,6.2-7.8c-0.7,3.4-0.1,7.1-4.2,8.9c-0.6,0.3-0.9,2.1-0.6,3c0.5,1.8,1.6,3.4,2.5,5
		L295.1,519.9z"/>
	<path fill="#BE1622" d="M295,520.1c0.2-0.6,0.8-1.3,0.7-1.7c-2-4.6,0.7-6.9,4.2-8.8c1.4,4.8,1.1,5.7-4.2,11.8
		c1.9,1.5,3.9,3,5.9,4.5c-2.5-4.9-0.7-8.2,3.8-10.9c0.7,3.9,1.7,7.6-2,10.6c-0.5,0.4-0.4,1.4-0.6,2.1c0,0,0.1-0.1,0.1-0.1
		c-1.3-0.7-2.6-1.4-4.3-2.4c-4.1,7.7-8.8,2.2-14.2,0.4c2.7-1.3,4.8-3,7-3.1c2-0.1,4.2,1.4,6.8,2.3c-1.2-2-2.1-3.4-3-4.9
		C295.1,519.9,295,520.1,295,520.1z"/>
	<path fill="#BE1622" d="M364.4,510.6c-0.6,2.1-1.2,4.2-2.1,7.5c3.5-4.6,7.2-6.3,12.2-3.8c-2,1.8-3.9,3.7-6,5.4
		c-0.6,0.5-1.9,0.8-2.5,0.4c-3.4-2.2-6.1-2.2-8.2,1.8c0.2-0.6,0.4-1.3,0.5-1.9c0,0-0.1,0.1-0.1,0.1c1.6-2.1,3.3-4.1,5.3-6.7
		c-4.6-2.2-6.6-5.6-6.1-10.4c3.2,1.4,6.8,2.4,5.7,7.3C363.1,510.3,364,510.5,364.4,510.6L364.4,510.6z"/>
	<path fill="#BE1622" d="M287.6,492.5c-0.1,0.6-0.1,1.2-0.2,1.8c1.3-3.9,4.4-4.8,8-5c-0.7,4.9-4.1,7.1-8.5,8.1
		c0.3-2.6-0.2-4.7-3.5-5.9c-1.1-0.4-1.7-3.1-2.1-4.8c-0.3-1.5-0.1-3.2-0.1-5.2c3.1,2.5,5.8,4.6,5.4,8.7
		C286.5,490.9,287.3,491.8,287.6,492.5C287.6,492.5,287.6,492.5,287.6,492.5z"/>
	<path fill="#BE1622" d="M366.3,490.4c-0.3-0.5-0.7-1.3-1-1.3c-4.1-0.1-5.9-3.1-8-6.9c3,0.7,5.4,1.2,7.7,1.8c0.7-3.1,1.6-7.1,2.5-11
		c0.4,0.1,0.9,0.1,1.3,0.2c0.5,2,1,4.1,1.3,6.2c0.1,1,0.2,2.6-0.3,2.9C366.7,484.1,366.8,487.4,366.3,490.4
		C366.3,490.4,366.3,490.4,366.3,490.4z"/>
	<path fill="#BE1622" d="M361.5,473.8c0.2-2.7,0.4-5.4,0.6-8.1c2.6,3.7,6.1,7,2.1,11.6c-0.7,0.7-0.1,2.5-0.1,3.9
		c-4.3,1.5-6.7-1.3-9.5-5c2.9,0.2,5.1,0.3,7.6,0.4c0-0.1,0-0.8,0-1.5C362,474.6,361.7,474.2,361.5,473.8z"/>
	<path fill="#BE1622" d="M361.5,473.8c0.2,0.4,0.5,0.8,0.7,1.2c-4.1,0.3-8.1,0.3-11-4.2c2.2-0.2,4.1-0.5,6.3-0.7
		c-0.2-0.6-0.4-1.2-0.7-1.9c-0.2-0.2-0.4-0.5-0.5-0.7c-0.3-2.5-0.5-4.9-0.9-8.4c3.4,3.8,7,6.3,4.6,11.4
		C359.6,471.2,360.9,472.7,361.5,473.8z"/>
	<path fill="#BE1622" d="M292.8,474.1c0.7-1.2,2.3-2.9,2-3.4c-2.9-5,1-7.4,4.4-10.3c-0.4,2.7-0.7,5.3-1.1,8c0,0,0.1-0.1,0.1-0.1
		c-0.6,0.3-1.2,0.6-1.8,0.8c0.2,0.3,0.4,0.6,0.6,0.9c2,0.2,4,0.5,6.2,0.8c-3.7,4.8-5.8,5.4-10.2,3.2
		C292.9,474,292.8,474.1,292.8,474.1z"/>
	<path fill="#BE1622" d="M370.8,525.4c-3.8,1.6-6.5,3.6-9.1,3.5c-2.4-0.1-4.7-2.5-7.2-3.9c2.7-0.9,5.1-2.4,7.5-2.3
		C364.6,522.7,367.2,524.2,370.8,525.4z"/>
	<path fill="#BE1622" d="M348.5,531.7c5.4-2.5,9.4-1.3,12.3,3.5C354.1,538.5,350.6,537.5,348.5,531.7z"/>
	<path fill="#BE1622" d="M278.3,491.4c5.6,2.4,9.7,7.6,9.6,11c-0.2-0.1-1.1-1.1-1.9-1c-5.3,0.3-6-3.7-7-7.4
		C278.7,493.2,278.5,492.4,278.3,491.4z"/>
	<path fill="#BE1622" d="M356.3,467.5c0.2,0.2,0.4,0.5,0.5,0.7c-3.9,2.9-7,0.9-10.4-1.8c1.7-0.6,3.2-1,4.6-1.5
		c-0.7-1.8-1.3-3.5-2.2-5.8c3.3,1.5,6,2.6,5.7,6.4C354.6,466.2,355.7,466.9,356.3,467.5z"/>
	<path fill="#BE1622" d="M298.1,468.4c0.6-0.9,1.6-1.7,1.9-2.7c1.1-4.1,1.1-4.2,5.8-6.7c-0.9,2.3-1.6,4.1-2.3,5.9
		c1.3,0.4,2.8,0.8,4.3,1.3C304.1,470.3,302.6,470.6,298.1,468.4C298.1,468.3,298.1,468.4,298.1,468.4z"/>
	<path fill="#BE1622" d="M289.8,482.3c-0.1,0.9-0.2,1.8-0.3,2.8c-0.2,0.6-0.5,1.2-0.7,1.8c-0.4-0.6-0.7-1.4-1.3-1.8
		c-5.5-3.5-2.6-7.9-1-12.2c1.1,3.2,2.2,6.4,3.3,9.6C289.9,482.4,289.8,482.3,289.8,482.3z"/>
	<path fill="#BE1622" d="M310.9,531.7c-4.6-5.8-4.6-5.8-0.1-12.1c2.9,6,2.9,6,0,12C310.8,531.7,310.9,531.7,310.9,531.7z"/>
	<path fill="#BE1622" d="M352,525.9c-4.6-2.5-3.7-6.5-2.7-10.5C354.8,518.4,355.3,520.2,352,525.9z"/>
	<path fill="#BE1622" d="M291.6,478.2c-4.3-4.8-4.3-5.2,0-12.3c0.4,0,0.8,0,1.1,0c0,2.7,0,5.5,0,8.2c0,0,0.1-0.1,0.1-0.2
		c-0.1,1.1-0.2,2.1-0.4,3.2C292.2,477.5,291.9,477.9,291.6,478.2z"/>
	<path fill="#BE1622" d="M358.3,520c-4.9-2.2-4.3-6.5-4.2-10.6C360.2,512.8,360.5,513.3,358.3,520C358.2,520,358.3,520,358.3,520z"
		/>
	<path fill="#BE1622" d="M291.6,478.2c0.3-0.4,0.6-0.7,0.9-1.1c2.2-0.4,4.5-0.9,7.2-1.4c-2,5.3-6.2,5.5-9.9,6.6c0,0,0.1,0.1,0.1,0.1
		C290.5,481,291.1,479.6,291.6,478.2z"/>
	<path fill="#BE1622" d="M288.8,486.8c0.2-0.6,0.5-1.2,0.7-1.8c2.3-1.1,4.5-2.1,6.8-3.2c0.2,0.4,0.4,0.7,0.6,1.1
		c-1.8,2.6-3,5.8-7.1,6.1c-0.8,0.1-1.5,2.2-2.2,3.4c0,0,0.1,0.1,0.1,0.1C288,490.7,288.4,488.7,288.8,486.8z"/>
	<path fill="#BE1622" d="M289.1,504.3c0-6.2,0.2-6.5,6.8-8.1C294.8,500.1,294.2,504,289.1,504.3z"/>
</g>
<g>
	<path fill="#BE1622" d="M583.8,480.8c2.8,1.1,5.6,2.3,9.4,3.8c-2-2.8-3.9-4.5-4.2-6.4c-0.3-2.1,0.9-4.4,1.5-6.8
		c3.8,3.6,5.7,7.6,2.9,13.7c4.9,0,8.9,0,13.9,0c-2.6-5.8-1.2-9.8,2.5-13.1c2.7,5.5,2.7,5.5-2.1,12.3c3.5-1.1,6.3-2,9.8-3.1
		c-3.9-4.1-3.3-8.1-0.9-11.9c4,3.1,4.4,5,2.1,9.2c-0.4,0.7-0.3,1.7-0.6,3.2c-1.5,0.6-3.8,1.6-6.1,2.6c5.8,0.2,9.7,2.7,11.2,8.6
		c-5.1-1.2-12.7,1.6-12.1-8.6c-3.3,0.9-6,1.6-9,2.5c1.9,2.1,3.4,3.8,4.9,5.6c-0.3,0.4-0.7,0.7-1,1.1c-1.8-1.7-3.7-3.4-5.7-5.3
		c-2,1.9-3.8,3.6-5.7,5.3c-0.3-0.4-0.7-0.7-1-1.1c1.5-1.7,3-3.4,4.9-5.5c-2.8-0.8-5.4-1.6-7.7-2.3c-1.6,2.6-2.5,5.8-4.5,7
		c-2.3,1.4-5.7,1-8.7,1.5c2.1-5.6,2.4-5.8,11.5-8.5c-1.9-0.8-3.3-1.4-4.7-2c-1.4-0.6-2.8-1.2-4.7-2.1c-1.8,8.8-7.9,5-13.2,4.7
		c2.8-4.9,6.6-6.7,12.1-5.1c-0.9-1-1.8-2.1-2.7-3.1c0,0-0.1,0.1-0.1,0.1C578.5,478.2,581.2,479.5,583.8,480.8L583.8,480.8z"/>
	<path fill="#BE1622" d="M638.5,454.6c-3.3-2.3-6.8-4.4-6.6-9.4c3.4,0.9,7.1,1.4,6.5,6.8c2.5-3.5,1.7-5.3-1.4-7.1
		c-2.3-1.3-3.8-3.9-6.3-6.6c7.2,0.8,7.2,0.8,9.2,4.8c-0.2-1.2-0.4-2.4-0.6-3.7c0,0-0.1,0-0.1,0c0.6-0.3,1.9-0.7,1.9-0.9
		c-0.6-4.1,2.8-5.6,5.5-8.7c-0.2,3.2-0.3,5.6-0.6,7.9c-0.2,1-0.9,2.5-1.6,2.7c-4.9,1.2-3.9,4.8-3.4,8.4c0.8-4.6,3.7-7,7.8-8.2
		c-0.4,6.4-1.5,7.9-7,9.8c-0.8,0.3-1.3,1.6-2,2.4C639.5,453.5,639,454,638.5,454.6C638.5,454.6,638.5,454.6,638.5,454.6z"/>
	<path fill="#BE1622" d="M568.1,469.1c-1.3-0.4-3.1-1.4-3.8-0.9c-3.3,2.2-5.5,0.9-7.7-1.5c-1.1-1.2-2.4-2.2-3.6-3.4
		c4.7-1.8,8.6-1.3,12.1,2.4c-0.8-1.8-1.5-3.7-2.5-5.4c-0.3-0.5-1.6-1.1-2.2-0.9c-3.9,1.5-5.7-0.7-7.2-3.7c-0.7-1.3-1.6-2.6-2.4-3.9
		c6.9-1.2,9,4.8,13.4,8.2c-0.7-4.6,1.9-6.7,6.2-7.8c-0.7,3.4-0.1,7.1-4.2,8.9c-0.6,0.3-0.9,2.1-0.6,3c0.5,1.8,1.6,3.4,2.5,5
		L568.1,469.1z"/>
	<path fill="#BE1622" d="M568.1,469.2c0.2-0.6,0.8-1.3,0.7-1.7c-2-4.6,0.7-6.9,4.2-8.8c1.4,4.8,1.1,5.7-4.2,11.8
		c1.9,1.5,3.9,3,5.9,4.5c-2.5-4.9-0.7-8.2,3.8-10.9c0.7,3.9,1.7,7.6-2,10.6c-0.5,0.4-0.4,1.4-0.6,2.1c0,0,0.1-0.1,0.1-0.1
		c-1.3-0.7-2.6-1.4-4.3-2.4c-4.1,7.7-8.8,2.2-14.2,0.4c2.7-1.3,4.8-3,7-3.1c2-0.1,4.2,1.4,6.8,2.3c-1.2-2-2.1-3.4-3-4.9
		C568.1,469.1,568.1,469.2,568.1,469.2z"/>
	<path fill="#BE1622" d="M637.4,459.7c-0.6,2.1-1.2,4.2-2.1,7.5c3.5-4.6,7.2-6.3,12.2-3.8c-2,1.8-3.9,3.7-6,5.4
		c-0.6,0.5-1.9,0.8-2.5,0.4c-3.4-2.2-6.1-2.2-8.2,1.8c0.2-0.6,0.4-1.3,0.5-1.9c0,0-0.1,0.1-0.1,0.1c1.6-2.1,3.3-4.1,5.3-6.7
		c-4.6-2.2-6.6-5.6-6.1-10.4c3.2,1.4,6.8,2.4,5.7,7.3C636.2,459.4,637.1,459.7,637.4,459.7L637.4,459.7z"/>
	<path fill="#BE1622" d="M560.6,441.6c-0.1,0.6-0.1,1.2-0.2,1.8c1.3-3.9,4.4-4.8,8-5c-0.7,4.9-4.1,7.1-8.5,8.1
		c0.3-2.6-0.2-4.7-3.5-5.9c-1.1-0.4-1.7-3.1-2.1-4.8c-0.3-1.5-0.1-3.2-0.1-5.2c3.1,2.5,5.8,4.6,5.4,8.7
		C559.6,440.1,560.3,440.9,560.6,441.6C560.7,441.7,560.6,441.6,560.6,441.6z"/>
	<path fill="#BE1622" d="M639.4,439.6c-0.3-0.5-0.7-1.3-1-1.3c-4.1-0.1-5.9-3.1-8-6.9c3,0.7,5.4,1.2,7.7,1.8c0.7-3.1,1.6-7.1,2.5-11
		c0.4,0.1,0.9,0.1,1.3,0.2c0.5,2,1,4.1,1.3,6.2c0.1,1,0.2,2.6-0.3,2.9C639.7,433.3,639.9,436.5,639.4,439.6
		C639.3,439.6,639.4,439.6,639.4,439.6z"/>
	<path fill="#BE1622" d="M634.5,423c0.2-2.7,0.4-5.4,0.6-8.1c2.6,3.7,6.1,7,2.1,11.6c-0.7,0.7-0.1,2.5-0.1,3.9
		c-4.3,1.5-6.7-1.3-9.5-5c2.9,0.2,5.1,0.3,7.6,0.4c0-0.1,0-0.8,0-1.5C635,423.8,634.8,423.4,634.5,423z"/>
	<path fill="#BE1622" d="M634.5,423c0.2,0.4,0.5,0.8,0.7,1.2c-4.1,0.3-8.1,0.3-11-4.2c2.2-0.2,4.1-0.5,6.3-0.7
		c-0.2-0.6-0.4-1.2-0.7-1.9c-0.2-0.2-0.4-0.5-0.5-0.7c-0.3-2.5-0.5-4.9-0.9-8.4c3.4,3.8,7,6.3,4.6,11.4
		C632.6,420.4,634,421.9,634.5,423z"/>
	<path fill="#BE1622" d="M565.8,423.3c0.7-1.2,2.3-2.9,2-3.4c-2.9-5,1-7.4,4.4-10.3c-0.4,2.7-0.7,5.3-1.1,8c0,0,0.1-0.1,0.1-0.1
		c-0.6,0.3-1.2,0.6-1.8,0.8c0.2,0.3,0.4,0.6,0.6,0.9c2,0.2,4,0.5,6.2,0.8c-3.7,4.8-5.8,5.4-10.2,3.2
		C565.9,423.2,565.8,423.3,565.8,423.3z"/>
	<path fill="#BE1622" d="M643.8,474.6c-3.8,1.6-6.5,3.6-9.1,3.5c-2.4-0.1-4.7-2.5-7.2-3.9c2.7-0.9,5.1-2.4,7.5-2.3
		C637.6,471.9,640.2,473.4,643.8,474.6z"/>
	<path fill="#BE1622" d="M621.6,480.9c5.4-2.5,9.4-1.3,12.3,3.5C627.2,487.7,623.6,486.7,621.6,480.9z"/>
	<path fill="#BE1622" d="M551.3,440.6c5.6,2.4,9.7,7.6,9.6,11c-0.2-0.1-1.1-1.1-1.9-1c-5.3,0.3-6-3.7-7-7.4
		C551.7,442.4,551.6,441.6,551.3,440.6z"/>
	<path fill="#BE1622" d="M629.3,416.7c0.2,0.2,0.4,0.5,0.5,0.7c-3.9,2.9-7,0.9-10.4-1.8c1.7-0.6,3.2-1,4.6-1.5
		c-0.7-1.8-1.3-3.5-2.2-5.8c3.3,1.5,6,2.6,5.7,6.4C627.6,415.4,628.7,416.1,629.3,416.7z"/>
	<path fill="#BE1622" d="M571.1,417.6c0.6-0.9,1.6-1.7,1.9-2.7c1.1-4.1,1.1-4.2,5.8-6.7c-0.9,2.3-1.6,4.1-2.3,5.9
		c1.3,0.4,2.8,0.8,4.3,1.3C577.1,419.4,575.6,419.8,571.1,417.6C571.1,417.5,571.1,417.6,571.1,417.6z"/>
	<path fill="#BE1622" d="M562.8,431.5c-0.1,0.9-0.2,1.8-0.3,2.8c-0.2,0.6-0.5,1.2-0.7,1.8c-0.4-0.6-0.7-1.4-1.3-1.8
		c-5.5-3.5-2.6-7.9-1-12.2c1.1,3.2,2.2,6.4,3.3,9.6C562.9,431.6,562.8,431.5,562.8,431.5z"/>
	<path fill="#BE1622" d="M583.9,480.9c-4.6-5.8-4.6-5.8-0.1-12.1c2.9,6,2.9,6,0,12C583.8,480.8,583.9,480.9,583.9,480.9z"/>
	<path fill="#BE1622" d="M625,475c-4.6-2.5-3.7-6.5-2.7-10.5C627.8,467.6,628.3,469.4,625,475z"/>
	<path fill="#BE1622" d="M564.7,427.4c-4.3-4.8-4.3-5.2,0-12.3c0.4,0,0.8,0,1.1,0c0,2.7,0,5.5,0,8.2c0,0,0.1-0.1,0.1-0.2
		c-0.1,1.1-0.2,2.1-0.4,3.2C565.3,426.7,565,427,564.7,427.4z"/>
	<path fill="#BE1622" d="M631.3,469.1c-4.9-2.2-4.3-6.5-4.2-10.6C633.3,461.9,633.5,462.5,631.3,469.1
		C631.3,469.2,631.3,469.1,631.3,469.1z"/>
	<path fill="#BE1622" d="M564.7,427.4c0.3-0.4,0.6-0.7,0.9-1.1c2.2-0.4,4.5-0.9,7.2-1.4c-2,5.3-6.2,5.5-9.9,6.6c0,0,0.1,0.1,0.1,0.1
		C563.5,430.2,564.1,428.8,564.7,427.4z"/>
	<path fill="#BE1622" d="M561.9,436c0.2-0.6,0.5-1.2,0.7-1.8c2.3-1.1,4.5-2.1,6.8-3.2c0.2,0.4,0.4,0.7,0.6,1.1
		c-1.8,2.6-3,5.8-7.1,6.1c-0.8,0.1-1.5,2.2-2.2,3.4c0,0,0.1,0.1,0.1,0.1C561.1,439.8,561.5,437.9,561.9,436z"/>
	<path fill="#BE1622" d="M562.1,453.5c0-6.2,0.2-6.5,6.8-8.1C567.8,449.2,567.2,453.2,562.1,453.5z"/>
</g>
<g>
	<path fill="#BE1622" d="M632.8,358.8c2.8,1.1,5.6,2.3,9.4,3.8c-2-2.8-3.9-4.5-4.2-6.4c-0.3-2.1,0.9-4.4,1.5-6.8
		c3.8,3.6,5.7,7.6,2.9,13.7c4.9,0,8.9,0,13.9,0c-2.6-5.8-1.2-9.8,2.5-13.1c2.7,5.5,2.7,5.5-2.1,12.3c3.5-1.1,6.3-2,9.8-3.1
		c-3.9-4.1-3.3-8.1-0.9-11.9c4,3.1,4.4,5,2.1,9.2c-0.4,0.7-0.3,1.7-0.6,3.2c-1.5,0.6-3.8,1.6-6.1,2.6c5.8,0.2,9.7,2.7,11.2,8.6
		c-5.1-1.2-12.7,1.6-12.1-8.6c-3.3,0.9-6,1.6-9,2.5c1.9,2.1,3.4,3.8,4.9,5.6c-0.3,0.4-0.7,0.7-1,1.1c-1.8-1.7-3.7-3.4-5.7-5.3
		c-2,1.9-3.8,3.6-5.7,5.3c-0.3-0.4-0.7-0.7-1-1.1c1.5-1.7,3-3.4,4.9-5.5c-2.8-0.8-5.4-1.6-7.7-2.3c-1.6,2.6-2.5,5.8-4.5,7
		c-2.3,1.4-5.7,1-8.7,1.5c2.1-5.6,2.4-5.8,11.5-8.5c-1.9-0.8-3.3-1.4-4.7-2c-1.4-0.6-2.8-1.2-4.7-2.1c-1.8,8.8-7.9,5-13.2,4.7
		c2.8-4.9,6.6-6.7,12.1-5.1c-0.9-1-1.8-2.1-2.7-3.1c0,0-0.1,0.1-0.1,0.1C627.5,356.1,630.2,357.5,632.8,358.8L632.8,358.8z"/>
	<path fill="#BE1622" d="M687.6,332.6c-3.3-2.3-6.8-4.4-6.6-9.4c3.4,0.9,7.1,1.4,6.5,6.8c2.5-3.5,1.7-5.3-1.4-7.1
		c-2.3-1.3-3.8-3.9-6.3-6.6c7.2,0.8,7.2,0.8,9.2,4.8c-0.2-1.2-0.4-2.4-0.6-3.7c0,0-0.1,0-0.1,0c0.6-0.3,1.9-0.7,1.9-0.9
		c-0.6-4.1,2.8-5.6,5.5-8.7c-0.2,3.2-0.3,5.6-0.6,7.9c-0.2,1-0.9,2.5-1.6,2.7c-4.9,1.2-3.9,4.8-3.4,8.4c0.8-4.6,3.7-7,7.8-8.2
		c-0.4,6.4-1.5,7.9-7,9.8c-0.8,0.3-1.3,1.6-2,2.4C688.5,331.5,688,332,687.6,332.6C687.5,332.5,687.6,332.6,687.6,332.6z"/>
	<path fill="#BE1622" d="M617.2,347.1c-1.3-0.4-3.1-1.4-3.8-0.9c-3.3,2.2-5.5,0.9-7.7-1.5c-1.1-1.2-2.4-2.2-3.6-3.4
		c4.7-1.8,8.6-1.3,12.1,2.4c-0.8-1.8-1.5-3.7-2.5-5.4c-0.3-0.5-1.6-1.1-2.2-0.9c-3.9,1.5-5.7-0.7-7.2-3.7c-0.7-1.3-1.6-2.6-2.4-3.9
		c6.9-1.2,9,4.8,13.4,8.2c-0.7-4.6,1.9-6.7,6.2-7.8c-0.7,3.4-0.1,7.1-4.2,8.9c-0.6,0.3-0.9,2.1-0.6,3c0.5,1.8,1.6,3.4,2.5,5
		L617.2,347.1z"/>
	<path fill="#BE1622" d="M617.1,347.2c0.2-0.6,0.8-1.3,0.7-1.7c-2-4.6,0.7-6.9,4.2-8.8c1.4,4.8,1.1,5.7-4.2,11.8
		c1.9,1.5,3.9,3,5.9,4.5c-2.5-4.9-0.7-8.2,3.8-10.9c0.7,3.9,1.7,7.6-2,10.6c-0.5,0.4-0.4,1.4-0.6,2.1c0,0,0.1-0.1,0.1-0.1
		c-1.3-0.7-2.6-1.4-4.3-2.4c-4.1,7.7-8.8,2.2-14.2,0.4c2.7-1.3,4.8-3,7-3.1c2-0.1,4.2,1.4,6.8,2.3c-1.2-2-2.1-3.4-3-4.9
		C617.2,347.1,617.1,347.2,617.1,347.2z"/>
	<path fill="#BE1622" d="M686.5,337.7c-0.6,2.1-1.2,4.2-2.1,7.5c3.5-4.6,7.2-6.3,12.2-3.8c-2,1.8-3.9,3.7-6,5.4
		c-0.6,0.5-1.9,0.8-2.5,0.4c-3.4-2.2-6.1-2.2-8.2,1.8c0.2-0.6,0.4-1.3,0.5-1.9c0,0-0.1,0.1-0.1,0.1c1.6-2.1,3.3-4.1,5.3-6.7
		c-4.6-2.2-6.6-5.6-6.1-10.4c3.2,1.4,6.8,2.4,5.7,7.3C685.2,337.4,686.1,337.6,686.5,337.7L686.5,337.7z"/>
	<path fill="#BE1622" d="M609.7,319.6c-0.1,0.6-0.1,1.2-0.2,1.8c1.3-3.9,4.4-4.8,8-5c-0.7,4.9-4.1,7.1-8.5,8.1
		c0.3-2.6-0.2-4.7-3.5-5.9c-1.1-0.4-1.7-3.1-2.1-4.8c-0.3-1.5-0.1-3.2-0.1-5.2c3.1,2.5,5.8,4.6,5.4,8.7
		C608.6,318,609.4,318.9,609.7,319.6C609.7,319.6,609.7,319.6,609.7,319.6z"/>
	<path fill="#BE1622" d="M688.4,317.5c-0.3-0.5-0.7-1.3-1-1.3c-4.1-0.1-5.9-3.1-8-6.9c3,0.7,5.4,1.2,7.7,1.8c0.7-3.1,1.6-7.1,2.5-11
		c0.4,0.1,0.9,0.1,1.3,0.2c0.5,2,1,4.1,1.3,6.2c0.1,1,0.2,2.6-0.3,2.9C688.7,311.2,688.9,314.5,688.4,317.5
		C688.4,317.5,688.4,317.5,688.4,317.5z"/>
	<path fill="#BE1622" d="M683.6,300.9c0.2-2.7,0.4-5.4,0.6-8.1c2.6,3.7,6.1,7,2.1,11.6c-0.7,0.7-0.1,2.5-0.1,3.9
		c-4.3,1.5-6.7-1.3-9.5-5c2.9,0.2,5.1,0.3,7.6,0.4c0-0.1,0-0.8,0-1.5C684,301.7,683.8,301.3,683.6,300.9z"/>
	<path fill="#BE1622" d="M683.6,300.9c0.2,0.4,0.5,0.8,0.7,1.2c-4.1,0.3-8.1,0.3-11-4.2c2.2-0.2,4.1-0.5,6.3-0.7
		c-0.2-0.6-0.4-1.2-0.7-1.9c-0.2-0.2-0.4-0.5-0.5-0.7c-0.3-2.5-0.5-4.9-0.9-8.4c3.4,3.8,7,6.3,4.6,11.4
		C681.7,298.3,683,299.8,683.6,300.9z"/>
	<path fill="#BE1622" d="M614.9,301.2c0.7-1.2,2.3-2.9,2-3.4c-2.9-5,1-7.4,4.4-10.3c-0.4,2.7-0.7,5.3-1.1,8c0,0,0.1-0.1,0.1-0.1
		c-0.6,0.3-1.2,0.6-1.8,0.8c0.2,0.3,0.4,0.6,0.6,0.9c2,0.2,4,0.5,6.2,0.8c-3.7,4.8-5.8,5.4-10.2,3.2
		C615,301.1,614.9,301.2,614.9,301.2z"/>
	<path fill="#BE1622" d="M692.8,352.5c-3.8,1.6-6.5,3.6-9.1,3.5c-2.4-0.1-4.7-2.5-7.2-3.9c2.7-0.9,5.1-2.4,7.5-2.3
		C686.7,349.8,689.2,351.3,692.8,352.5z"/>
	<path fill="#BE1622" d="M670.6,358.8c5.4-2.5,9.4-1.3,12.3,3.5C676.2,365.7,672.6,364.7,670.6,358.8z"/>
	<path fill="#BE1622" d="M600.4,318.6c5.6,2.4,9.7,7.6,9.6,11c-0.2-0.1-1.1-1.1-1.9-1c-5.3,0.3-6-3.7-7-7.4
		C600.8,320.3,600.6,319.5,600.4,318.6z"/>
	<path fill="#BE1622" d="M678.4,294.6c0.2,0.2,0.4,0.5,0.5,0.7c-3.9,2.9-7,0.9-10.4-1.8c1.7-0.6,3.2-1,4.6-1.5
		c-0.7-1.8-1.3-3.5-2.2-5.8c3.3,1.5,6,2.6,5.7,6.4C676.6,293.3,677.8,294,678.4,294.6z"/>
	<path fill="#BE1622" d="M620.1,295.5c0.6-0.9,1.6-1.7,1.9-2.7c1.1-4.1,1.1-4.2,5.8-6.7c-0.9,2.3-1.6,4.1-2.3,5.9
		c1.3,0.4,2.8,0.8,4.3,1.3C626.1,297.4,624.7,297.7,620.1,295.5C620.2,295.4,620.1,295.5,620.1,295.5z"/>
	<path fill="#BE1622" d="M611.9,309.4c-0.1,0.9-0.2,1.8-0.3,2.8c-0.2,0.6-0.5,1.2-0.7,1.8c-0.4-0.6-0.7-1.4-1.3-1.8
		c-5.5-3.5-2.6-7.9-1-12.2c1.1,3.2,2.2,6.4,3.3,9.6C612,309.5,611.9,309.4,611.9,309.4z"/>
	<path fill="#BE1622" d="M632.9,358.8c-4.6-5.8-4.6-5.8-0.1-12.1c2.9,6,2.9,6,0,12C632.8,358.8,632.9,358.8,632.9,358.8z"/>
	<path fill="#BE1622" d="M674.1,353c-4.6-2.5-3.7-6.5-2.7-10.5C676.9,345.5,677.4,347.3,674.1,353z"/>
	<path fill="#BE1622" d="M613.7,305.3c-4.3-4.8-4.3-5.2,0-12.3c0.4,0,0.8,0,1.1,0c0,2.7,0,5.5,0,8.2c0,0,0.1-0.1,0.1-0.2
		c-0.1,1.1-0.2,2.1-0.4,3.2C614.3,304.6,614,305,613.7,305.3z"/>
	<path fill="#BE1622" d="M680.4,347.1c-4.9-2.2-4.3-6.5-4.2-10.6C682.3,339.9,682.5,340.4,680.4,347.1
		C680.3,347.1,680.4,347.1,680.4,347.1z"/>
	<path fill="#BE1622" d="M613.7,305.3c0.3-0.4,0.6-0.7,0.9-1.1c2.2-0.4,4.5-0.9,7.2-1.4c-2,5.3-6.2,5.5-9.9,6.6c0,0,0.1,0.1,0.1,0.1
		C612.6,308.2,613.1,306.7,613.7,305.3z"/>
	<path fill="#BE1622" d="M610.9,314c0.2-0.6,0.5-1.2,0.7-1.8c2.3-1.1,4.5-2.1,6.8-3.2c0.2,0.4,0.4,0.7,0.6,1.1
		c-1.8,2.6-3,5.8-7.1,6.1c-0.8,0.1-1.5,2.2-2.2,3.4c0,0,0.1,0.1,0.1,0.1C610.1,317.8,610.5,315.9,610.9,314z"/>
	<path fill="#BE1622" d="M611.2,331.4c0-6.2,0.2-6.5,6.8-8.1C616.9,327.2,616.3,331.1,611.2,331.4z"/>
</g>
</svg>
