<?xml version="1.0" encoding="utf-8"?>
<!-- Generator: Adobe Illustrator 18.0.0, SVG Export Plug-In . SVG Version: 6.00 Build 0)  -->
<svg version="1.1" id="Camada_1" xmlns="http://www.w3.org/2000/svg" xmlns:xlink="http://www.w3.org/1999/xlink" x="0px" y="0px"
	 viewBox="0 0 1024 768" enable-background="new 0 0 1024 768" xml:space="preserve">
<circle fill="#CCCCCC" cx="146.7" cy="92" r="13"/>
<circle fill="#CCCCCC" cx="331.5" cy="547" r="13.5"/>
<circle fill="#CCCCCC" cx="516.1" cy="325" r="13"/>
<circle fill="#CCCCCC" cx="727.1" cy="72" r="24"/>
<circle fill="#CCCCCC" cx="851.1" cy="456.6" r="12"/>
<circle fill="#CCCCCC" cx="649.6" cy="606.6" r="21.3"/>
<text transform="matrix(1 0 0 1 306.7302 594.6094)" font-family="'MyriadPro-Regular'" font-size="24.2249">Volêi</text>
<text transform="matrix(1 0 0 1 623.836 654.0024)" font-family="'MyriadPro-Regular'" font-size="24.2249">Golfe</text>
<text transform="matrix(1 0 0 1 678.8239 121.6101)" font-family="'MyriadPro-Regular'" font-size="24.2249">Basquete</text>
<text transform="matrix(1 0 0 1 109.4467 135.1098)" font-family="'MyriadPro-Regular'" font-size="24.2249">Futebol</text>
<text transform="matrix(1 0 0 1 831.3718 499.6759)" font-family="'MyriadPro-Regular'" font-size="24.2249">Surf</text>
<text transform="matrix(1 0 0 1 478.9363 370.11)" font-family="'MyriadPro-Regular'" font-size="24.2249">Corrida</text>
<circle fill="#A51919" cx="1226.7" cy="92" r="13"/>
<circle fill="#CCCCCC" cx="1411.5" cy="547" r="13.5"/>
<circle fill="#A51919" cx="1596.1" cy="325" r="13"/>
<circle fill="#CCCCCC" cx="1807.1" cy="72" r="24"/>
<circle fill="#CCCCCC" cx="1931.1" cy="456.6" r="12"/>
<circle fill="#A51919" cx="1729.6" cy="606.6" r="21.3"/>
<text transform="matrix(1 0 0 1 1386.7305 594.6089)" font-family="'MyriadPro-Regular'" font-size="24.2249">Volêi</text>
<text transform="matrix(1 0 0 1 1703.8362 654.002)" font-family="'MyriadPro-Regular'" font-size="24.2249">Golfe</text>
<text transform="matrix(1 0 0 1 1758.8241 121.6096)" font-family="'MyriadPro-Regular'" font-size="24.2249">Basquete</text>
<text transform="matrix(1 0 0 1 1189.447 135.1093)" font-family="'MyriadPro-Regular'" font-size="24.2249">Futebol</text>
<text transform="matrix(1 0 0 1 1911.3721 499.6754)" font-family="'MyriadPro-Regular'" font-size="24.2249">Surf</text>
<line fill="none" stroke="#A51919" stroke-width="3" stroke-miterlimit="10" x1="1226.7" y1="92" x2="1592" y2="325"/>
<line fill="none" stroke="#A51919" stroke-width="3" stroke-miterlimit="10" x1="1596.1" y1="325" x2="1729.6" y2="606.6"/>
<text transform="matrix(1 0 0 1 1558.9365 370.1095)" font-family="'MyriadPro-Regular'" font-size="24.2249">Corrida</text>
</svg>
