<?xml version="1.0" encoding="utf-8"?>
<!-- Generator: Adobe Illustrator 18.0.0, SVG Export Plug-In . SVG Version: 6.00 Build 0)  -->
<svg version="1.1" id="Camada_1" xmlns="http://www.w3.org/2000/svg" xmlns:xlink="http://www.w3.org/1999/xlink" x="0px" y="0px"
	 viewBox="0 0 1024 768" enable-background="new 0 0 1024 768" xml:space="preserve">
<line fill="none" stroke="#CCCCCC" stroke-width="3" stroke-miterlimit="10" x1="343.8" y1="92" x2="426.8" y2="268.8"/>
<line fill="none" stroke="#CCCCCC" stroke-width="3" stroke-miterlimit="10" x1="803.8" y1="126.8" x2="886.8" y2="303.6"/>
<line fill="none" stroke="#CCCCCC" stroke-width="3" stroke-miterlimit="10" x1="566.8" y1="155" x2="649.8" y2="331.8"/>
<line fill="none" stroke="#CCCCCC" stroke-width="3" stroke-miterlimit="10" x1="598.8" y1="445.6" x2="543.8" y2="569.4"/>
<circle fill="#CCCCCC" cx="649.8" cy="326.6" r="42"/>
<circle fill="#CCCCCC" cx="599.8" cy="445.6" r="42"/>
<line fill="none" stroke="#CCCCCC" stroke-width="3" stroke-miterlimit="10" x1="649.8" y1="331.8" x2="594.8" y2="455.6"/>
<text transform="matrix(1 0 0 1 633.7291 331.7789)" font-family="'MyriadPro-Regular'" font-size="17.7013">Luta</text>
<text transform="matrix(1 0 0 1 581.8444 450.7861)" font-family="'MyriadPro-Regular'" font-size="17.7013">Judô</text>
<circle fill="#CCCCCC" cx="548.8" cy="559.4" r="42"/>
<text transform="matrix(1 0 0 1 532.5524 564.5979)" font-family="'MyriadPro-Regular'" font-size="17.7013">Polo</text>
<line fill="none" stroke="#CCCCCC" stroke-width="3" stroke-miterlimit="10" x1="90" y1="141" x2="187" y2="226.2"/>
<text transform="matrix(1 0 0 1 57.9998 68.2465)" font-family="'MyriadPro-Regular'" font-size="43.5">2015</text>
<text transform="matrix(1 0 0 1 823.0004 138.6094)" font-family="'MyriadPro-Regular'" font-size="39">Dezembro</text>
<circle fill="#D8B91E" cx="90" cy="141" r="14"/>
<circle fill="#D8B91E" cx="343.8" cy="92" r="14"/>
<circle fill="#D8B91E" cx="562.9" cy="155" r="14"/>
<circle fill="#D8B91E" cx="803.9" cy="127" r="14"/>
<line fill="none" stroke="#CCCCCC" stroke-width="3" stroke-miterlimit="10" x1="375.8" y1="382.6" x2="320.8" y2="506.4"/>
<line fill="none" stroke="#D8B91E" stroke-width="3" stroke-miterlimit="10" x1="95" y1="135.1" x2="343.8" y2="92"/>
<line fill="none" stroke="#D8B91E" stroke-width="3" stroke-miterlimit="10" x1="343.8" y1="92" x2="562.9" y2="155"/>
<line fill="none" stroke="#D8B91E" stroke-width="3" stroke-miterlimit="10" x1="562.9" y1="155" x2="803.9" y2="127"/>
<text transform="matrix(0.9869 -0.1613 0.1613 0.9869 108.9884 126.9995)" font-family="'MyriadPro-Regular'" font-size="39">Setembro</text>
<text transform="matrix(0.9605 0.2783 -0.2783 0.9605 363.3923 86.2427)" font-family="'MyriadPro-Regular'" font-size="39">Outubro</text>
<text transform="matrix(0.9938 -0.1109 0.1109 0.9938 585.8621 144.6468)" font-family="'MyriadPro-Regular'" font-size="39">Novembro</text>
<circle fill="#CCCCCC" cx="187" cy="221" r="42"/>
<circle fill="#CCCCCC" cx="137" cy="340" r="42"/>
<line fill="none" stroke="#CCCCCC" stroke-width="3" stroke-miterlimit="10" x1="187" y1="226.2" x2="132" y2="350"/>
<text transform="matrix(1 0 0 1 155.952 226.1953)" font-family="'MyriadPro-Regular'" font-size="17.7013">Ciclismo</text>
<text transform="matrix(1 0 0 1 108.9879 345.2023)" font-family="'MyriadPro-Regular'" font-size="17.7013">Triantlo</text>
<circle fill="#CCCCCC" cx="426.8" cy="263.6" r="42"/>
<circle fill="#CCCCCC" cx="376.8" cy="382.6" r="42"/>
<line fill="none" stroke="#CCCCCC" stroke-width="3" stroke-miterlimit="10" x1="426.8" y1="268.8" x2="371.8" y2="392.6"/>
<text transform="matrix(1 0 0 1 406.9059 268.793)" font-family="'MyriadPro-Regular'" font-size="17.7013">Nado</text>
<text transform="matrix(1 0 0 1 336.7091 387.8001)" font-family="'MyriadPro-Regular'" font-size="17.7013">Canoagem</text>
<circle fill="#CCCCCC" cx="325.8" cy="496.4" r="42"/>
<text transform="matrix(1 0 0 1 306.2335 501.6118)" font-family="'MyriadPro-Regular'" font-size="17.7013">Golfe</text>
<line fill="none" stroke="#CCCCCC" stroke-width="3" stroke-miterlimit="10" x1="835.8" y1="417.4" x2="780.8" y2="541.2"/>
<circle fill="#CCCCCC" cx="886.8" cy="298.4" r="42"/>
<circle fill="#CCCCCC" cx="836.8" cy="417.4" r="42"/>
<line fill="none" stroke="#CCCCCC" stroke-width="3" stroke-miterlimit="10" x1="886.8" y1="303.6" x2="831.8" y2="427.4"/>
<text transform="matrix(1 0 0 1 858.4801 303.5781)" font-family="'MyriadPro-Regular'" font-size="17.7013">Goaball</text>
<text transform="matrix(1 0 0 1 822.8268 422.5849)" font-family="'MyriadPro-Regular'" font-size="17.7013">Tiro</text>
<circle fill="#CCCCCC" cx="785.8" cy="531.2" r="42"/>
<text transform="matrix(1 0 0 1 769.5524 536.3967)" font-family="'MyriadPro-Regular'" font-size="17.7013">Luta</text>
<line fill="none" stroke="#CCCCCC" stroke-width="3" stroke-miterlimit="10" x1="1423.8" y1="92" x2="1506.8" y2="268.8"/>
<line fill="none" stroke="#CCCCCC" stroke-width="3" stroke-miterlimit="10" x1="1883.8" y1="126.8" x2="1966.8" y2="303.6"/>
<line fill="none" stroke="#CCCCCC" stroke-width="3" stroke-miterlimit="10" x1="1646.8" y1="155" x2="1729.8" y2="331.8"/>
<line fill="none" stroke="#CCCCCC" stroke-width="3" stroke-miterlimit="10" x1="1678.8" y1="445.6" x2="1623.8" y2="569.4"/>
<circle fill="#CCCCCC" cx="1729.8" cy="326.6" r="42"/>
<circle fill="#CCCCCC" cx="1679.8" cy="445.6" r="42"/>
<line fill="none" stroke="#CCCCCC" stroke-width="3" stroke-miterlimit="10" x1="1729.8" y1="331.8" x2="1674.8" y2="455.6"/>
<text transform="matrix(1 0 0 1 1713.7289 331.7793)" font-family="'MyriadPro-Regular'" font-size="17.7013">Luta</text>
<text transform="matrix(1 0 0 1 1661.8441 450.7865)" font-family="'MyriadPro-Regular'" font-size="17.7013">Judô</text>
<circle fill="#CCCCCC" cx="1628.8" cy="559.4" r="42"/>
<text transform="matrix(1 0 0 1 1612.5521 564.5983)" font-family="'MyriadPro-Regular'" font-size="17.7013">Polo</text>
<line fill="none" stroke="#CCCCCC" stroke-width="3" stroke-miterlimit="10" x1="1170" y1="141" x2="1267" y2="226.2"/>
<text transform="matrix(1 0 0 1 1137.9995 68.2469)" font-family="'MyriadPro-Regular'" font-size="43.5">2015</text>
<text transform="matrix(1 0 0 1 1903.0001 138.6098)" font-family="'MyriadPro-Regular'" font-size="39">Dezembro</text>
<circle fill="#D8B91E" cx="1170" cy="141" r="14"/>
<circle fill="#D8B91E" cx="1423.8" cy="92" r="14"/>
<circle fill="#D8B91E" cx="1642.9" cy="155" r="14"/>
<circle fill="#D8B91E" cx="1883.9" cy="127" r="14"/>
<line fill="none" stroke="#CCCCCC" stroke-width="3" stroke-miterlimit="10" x1="1455.8" y1="382.6" x2="1400.8" y2="506.4"/>
<line fill="none" stroke="#D8B91E" stroke-width="3" stroke-miterlimit="10" x1="1175" y1="135.1" x2="1423.8" y2="92"/>
<line fill="none" stroke="#D8B91E" stroke-width="3" stroke-miterlimit="10" x1="1423.8" y1="92" x2="1642.9" y2="155"/>
<line fill="none" stroke="#D8B91E" stroke-width="3" stroke-miterlimit="10" x1="1642.9" y1="155" x2="1883.9" y2="127"/>
<text transform="matrix(0.9869 -0.1613 0.1613 0.9869 1188.9882 126.9999)" font-family="'MyriadPro-Regular'" font-size="39">Setembro</text>
<text transform="matrix(0.9605 0.2783 -0.2783 0.9605 1443.3923 86.243)" font-family="'MyriadPro-Regular'" font-size="39">Outubro</text>
<text transform="matrix(0.9938 -0.1109 0.1109 0.9938 1665.8619 144.6472)" font-family="'MyriadPro-Regular'" font-size="39">Novembro</text>
<circle fill="#CCCCCC" cx="1267" cy="221" r="42"/>
<circle fill="#CCCCCC" cx="1217" cy="340" r="42"/>
<line fill="none" stroke="#CCCCCC" stroke-width="3" stroke-miterlimit="10" x1="1267" y1="226.2" x2="1212" y2="350"/>
<text transform="matrix(1 0 0 1 1235.9518 226.1957)" font-family="'MyriadPro-Regular'" font-size="17.7013">Ciclismo</text>
<text transform="matrix(1 0 0 1 1188.9877 345.2027)" font-family="'MyriadPro-Regular'" font-size="17.7013">Triantlo</text>
<circle fill="#CCCCCC" cx="1506.8" cy="263.6" r="42"/>
<circle fill="#CCCCCC" cx="1456.8" cy="382.6" r="42"/>
<line fill="none" stroke="#CCCCCC" stroke-width="3" stroke-miterlimit="10" x1="1506.8" y1="268.8" x2="1451.8" y2="392.6"/>
<text transform="matrix(1 0 0 1 1486.9056 268.7934)" font-family="'MyriadPro-Regular'" font-size="17.7013">Nado</text>
<text transform="matrix(1 0 0 1 1416.7089 387.8005)" font-family="'MyriadPro-Regular'" font-size="17.7013">Canoagem</text>
<circle fill="#CCCCCC" cx="1405.8" cy="496.4" r="42"/>
<text transform="matrix(1 0 0 1 1386.2333 501.6122)" font-family="'MyriadPro-Regular'" font-size="17.7013">Golfe</text>
<line fill="none" stroke="#CCCCCC" stroke-width="3" stroke-miterlimit="10" x1="1915.8" y1="417.4" x2="1860.8" y2="541.2"/>
<circle fill="#CCCCCC" cx="1966.8" cy="298.4" r="42"/>
<circle fill="#CCCCCC" cx="1916.8" cy="417.4" r="42"/>
<line fill="none" stroke="#CCCCCC" stroke-width="3" stroke-miterlimit="10" x1="1966.8" y1="303.6" x2="1911.8" y2="427.4"/>
<text transform="matrix(1 0 0 1 1938.4799 303.5785)" font-family="'MyriadPro-Regular'" font-size="17.7013">Goaball</text>
<text transform="matrix(1 0 0 1 1902.8265 422.5853)" font-family="'MyriadPro-Regular'" font-size="17.7013">Tiro</text>
<circle fill="#CCCCCC" cx="1865.8" cy="531.2" r="42"/>
<text transform="matrix(1 0 0 1 1849.5521 536.3972)" font-family="'MyriadPro-Regular'" font-size="17.7013">Luta</text>
<g>
	<path fill="#BE1622" d="M1201,375.2c2.8,1.1,5.6,2.3,9.4,3.8c-2-2.8-3.9-4.5-4.2-6.4c-0.3-2.1,0.9-4.4,1.5-6.8
		c3.8,3.6,5.7,7.6,2.9,13.7c4.9,0,8.9,0,13.9,0c-2.6-5.8-1.2-9.8,2.5-13.1c2.7,5.5,2.7,5.5-2.1,12.3c3.5-1.1,6.3-2,9.8-3.1
		c-3.9-4.1-3.3-8.1-0.9-11.9c4,3.1,4.4,5,2.1,9.2c-0.4,0.7-0.3,1.7-0.6,3.2c-1.5,0.6-3.8,1.6-6.1,2.6c5.8,0.2,9.7,2.7,11.2,8.6
		c-5.1-1.2-12.7,1.6-12.1-8.6c-3.3,0.9-6,1.6-9,2.5c1.9,2.1,3.4,3.8,4.9,5.6c-0.3,0.4-0.7,0.7-1,1.1c-1.8-1.7-3.7-3.4-5.7-5.3
		c-2,1.9-3.8,3.6-5.7,5.3c-0.3-0.4-0.7-0.7-1-1.1c1.5-1.7,3-3.4,4.9-5.5c-2.8-0.8-5.4-1.6-7.7-2.3c-1.6,2.6-2.5,5.8-4.5,7
		c-2.3,1.4-5.7,1-8.7,1.5c2.1-5.6,2.4-5.8,11.5-8.5c-1.9-0.8-3.3-1.4-4.7-2c-1.4-0.6-2.8-1.2-4.7-2.1c-1.8,8.8-7.9,5-13.2,4.7
		c2.8-4.9,6.6-6.7,12.1-5.1c-0.9-1-1.8-2.1-2.7-3.1c0,0-0.1,0.1-0.1,0.1C1195.6,372.6,1198.3,374,1201,375.2L1201,375.2z"/>
	<path fill="#BE1622" d="M1255.7,349c-3.3-2.3-6.8-4.4-6.6-9.4c3.4,0.9,7.1,1.4,6.5,6.8c2.5-3.5,1.7-5.3-1.4-7.1
		c-2.3-1.3-3.8-3.9-6.3-6.6c7.2,0.8,7.2,0.8,9.2,4.8c-0.2-1.2-0.4-2.4-0.6-3.7c0,0-0.1,0-0.1,0c0.6-0.3,1.9-0.7,1.9-0.9
		c-0.6-4.1,2.8-5.6,5.5-8.7c-0.2,3.2-0.3,5.6-0.6,7.9c-0.2,1-0.9,2.5-1.6,2.7c-4.9,1.2-3.9,4.8-3.4,8.4c0.8-4.6,3.7-7,7.8-8.2
		c-0.4,6.4-1.5,7.9-7,9.8c-0.8,0.3-1.3,1.6-2,2.4C1256.6,348,1256.1,348.5,1255.7,349C1255.6,349,1255.7,349,1255.7,349z"/>
	<path fill="#BE1622" d="M1185.3,363.5c-1.3-0.4-3.1-1.4-3.8-0.9c-3.3,2.2-5.5,0.9-7.7-1.5c-1.1-1.2-2.4-2.2-3.6-3.4
		c4.7-1.8,8.6-1.3,12.1,2.4c-0.8-1.8-1.5-3.7-2.5-5.4c-0.3-0.5-1.6-1.1-2.2-0.9c-3.9,1.5-5.7-0.7-7.2-3.7c-0.7-1.3-1.6-2.6-2.4-3.9
		c6.9-1.2,9,4.8,13.4,8.2c-0.7-4.6,1.9-6.7,6.2-7.8c-0.7,3.4-0.1,7.1-4.2,8.9c-0.6,0.3-0.9,2.1-0.6,3c0.5,1.8,1.6,3.4,2.5,5
		L1185.3,363.5z"/>
	<path fill="#BE1622" d="M1185.2,363.6c0.2-0.6,0.8-1.3,0.7-1.7c-2-4.6,0.7-6.9,4.2-8.8c1.4,4.8,1.1,5.7-4.2,11.8
		c1.9,1.5,3.9,3,5.9,4.5c-2.5-4.9-0.7-8.2,3.8-10.9c0.7,3.9,1.7,7.6-2,10.6c-0.5,0.4-0.4,1.4-0.6,2.1c0,0,0.1-0.1,0.1-0.1
		c-1.3-0.7-2.6-1.4-4.3-2.4c-4.1,7.7-8.8,2.2-14.2,0.4c2.7-1.3,4.8-3,7-3.1c2-0.1,4.2,1.4,6.8,2.3c-1.2-2-2.1-3.4-3-4.9
		C1185.3,363.5,1185.2,363.6,1185.2,363.6z"/>
	<path fill="#BE1622" d="M1254.6,354.2c-0.6,2.1-1.2,4.2-2.1,7.5c3.5-4.6,7.2-6.3,12.2-3.8c-2,1.8-3.9,3.7-6,5.4
		c-0.6,0.5-1.9,0.8-2.5,0.4c-3.4-2.2-6.1-2.2-8.2,1.8c0.2-0.6,0.4-1.3,0.5-1.9c0,0-0.1,0.1-0.1,0.1c1.6-2.1,3.3-4.1,5.3-6.7
		c-4.6-2.2-6.6-5.6-6.1-10.4c3.2,1.4,6.8,2.4,5.7,7.3C1253.3,353.9,1254.2,354.1,1254.6,354.2L1254.6,354.2z"/>
	<path fill="#BE1622" d="M1177.8,336c-0.1,0.6-0.1,1.2-0.2,1.8c1.3-3.9,4.4-4.8,8-5c-0.7,4.9-4.1,7.1-8.5,8.1
		c0.3-2.6-0.2-4.7-3.5-5.9c-1.1-0.4-1.7-3.1-2.1-4.8c-0.3-1.5-0.1-3.2-0.1-5.2c3.1,2.5,5.8,4.6,5.4,8.7
		C1176.7,334.5,1177.5,335.4,1177.8,336C1177.8,336.1,1177.8,336,1177.8,336z"/>
	<path fill="#BE1622" d="M1256.5,334c-0.3-0.5-0.7-1.3-1-1.3c-4.1-0.1-5.9-3.1-8-6.9c3,0.7,5.4,1.2,7.7,1.8c0.7-3.1,1.6-7.1,2.5-11
		c0.4,0.1,0.9,0.1,1.3,0.2c0.5,2,1,4.1,1.3,6.2c0.1,1,0.2,2.6-0.3,2.9C1256.8,327.7,1257,331,1256.5,334
		C1256.5,334,1256.5,334,1256.5,334z"/>
	<path fill="#BE1622" d="M1251.7,317.4c0.2-2.7,0.4-5.4,0.6-8.1c2.6,3.7,6.1,7,2.1,11.6c-0.7,0.7-0.1,2.5-0.1,3.9
		c-4.3,1.5-6.7-1.3-9.5-5c2.9,0.2,5.1,0.3,7.6,0.4c0-0.1,0-0.8,0-1.5C1252.1,318.2,1251.9,317.8,1251.7,317.4z"/>
	<path fill="#BE1622" d="M1251.7,317.4c0.2,0.4,0.5,0.8,0.7,1.2c-4.1,0.3-8.1,0.3-11-4.2c2.2-0.2,4.1-0.5,6.3-0.7
		c-0.2-0.6-0.4-1.2-0.7-1.9c-0.2-0.2-0.4-0.5-0.5-0.7c-0.3-2.5-0.5-4.9-0.9-8.4c3.4,3.8,7,6.3,4.6,11.4
		C1249.8,314.8,1251.1,316.3,1251.7,317.4z"/>
	<path fill="#BE1622" d="M1183,317.7c0.7-1.2,2.3-2.9,2-3.4c-2.9-5,1-7.4,4.4-10.3c-0.4,2.7-0.7,5.3-1.1,8c0,0,0.1-0.1,0.1-0.1
		c-0.6,0.3-1.2,0.6-1.8,0.8c0.2,0.3,0.4,0.6,0.6,0.9c2,0.2,4,0.5,6.2,0.8c-3.7,4.8-5.8,5.4-10.2,3.2
		C1183.1,317.6,1183,317.7,1183,317.7z"/>
	<path fill="#BE1622" d="M1260.9,369c-3.8,1.6-6.5,3.6-9.1,3.5c-2.4-0.1-4.7-2.5-7.2-3.9c2.7-0.9,5.1-2.4,7.5-2.3
		C1254.8,366.3,1257.3,367.8,1260.9,369z"/>
	<path fill="#BE1622" d="M1238.7,375.3c5.4-2.5,9.4-1.3,12.3,3.5C1244.3,382.1,1240.7,381.1,1238.7,375.3z"/>
	<path fill="#BE1622" d="M1168.5,335c5.6,2.4,9.7,7.6,9.6,11c-0.2-0.1-1.1-1.1-1.9-1c-5.3,0.3-6-3.7-7-7.4
		C1168.9,336.8,1168.7,336,1168.5,335z"/>
	<path fill="#BE1622" d="M1246.5,311.1c0.2,0.2,0.4,0.5,0.5,0.7c-3.9,2.9-7,0.9-10.4-1.8c1.7-0.6,3.2-1,4.6-1.5
		c-0.7-1.8-1.3-3.5-2.2-5.8c3.3,1.5,6,2.6,5.7,6.4C1244.8,309.8,1245.9,310.5,1246.5,311.1z"/>
	<path fill="#BE1622" d="M1188.2,312c0.6-0.9,1.6-1.7,1.9-2.7c1.1-4.1,1.1-4.2,5.8-6.7c-0.9,2.3-1.6,4.1-2.3,5.9
		c1.3,0.4,2.8,0.8,4.3,1.3C1194.2,313.9,1192.8,314.2,1188.2,312C1188.3,311.9,1188.2,312,1188.2,312z"/>
	<path fill="#BE1622" d="M1180,325.9c-0.1,0.9-0.2,1.8-0.3,2.8c-0.2,0.6-0.5,1.2-0.7,1.8c-0.4-0.6-0.7-1.4-1.3-1.8
		c-5.5-3.5-2.6-7.9-1-12.2c1.1,3.2,2.2,6.4,3.3,9.6C1180.1,326,1180,325.9,1180,325.9z"/>
	<path fill="#BE1622" d="M1201,375.3c-4.6-5.8-4.6-5.8-0.1-12.1c2.9,6,2.9,6,0,12C1201,375.2,1201,375.3,1201,375.3z"/>
	<path fill="#BE1622" d="M1242.2,369.5c-4.6-2.5-3.7-6.5-2.7-10.5C1245,362,1245.5,363.8,1242.2,369.5z"/>
	<path fill="#BE1622" d="M1181.8,321.8c-4.3-4.8-4.3-5.2,0-12.3c0.4,0,0.8,0,1.1,0c0,2.7,0,5.5,0,8.2c0,0,0.1-0.1,0.1-0.2
		c-0.1,1.1-0.2,2.1-0.4,3.2C1182.4,321.1,1182.1,321.5,1181.8,321.8z"/>
	<path fill="#BE1622" d="M1248.5,363.5c-4.9-2.2-4.3-6.5-4.2-10.6C1250.4,356.4,1250.6,356.9,1248.5,363.5
		C1248.4,363.6,1248.5,363.5,1248.5,363.5z"/>
	<path fill="#BE1622" d="M1181.8,321.8c0.3-0.4,0.6-0.7,0.9-1.1c2.2-0.4,4.5-0.9,7.2-1.4c-2,5.3-6.2,5.5-9.9,6.6
		c0,0,0.1,0.1,0.1,0.1C1180.7,324.6,1181.2,323.2,1181.8,321.8z"/>
	<path fill="#BE1622" d="M1179,330.4c0.2-0.6,0.5-1.2,0.7-1.8c2.3-1.1,4.5-2.1,6.8-3.2c0.2,0.4,0.4,0.7,0.6,1.1
		c-1.8,2.6-3,5.8-7.1,6.1c-0.8,0.1-1.5,2.2-2.2,3.4c0,0,0.1,0.1,0.1,0.1C1178.2,334.2,1178.6,332.3,1179,330.4z"/>
	<path fill="#BE1622" d="M1179.3,347.9c0-6.2,0.2-6.5,6.8-8.1C1185,343.7,1184.4,347.6,1179.3,347.9z"/>
</g>
<g>
	<path fill="#BE1622" d="M1390.8,531.7c2.8,1.1,5.6,2.3,9.4,3.8c-2-2.8-3.9-4.5-4.2-6.4c-0.3-2.1,0.9-4.4,1.5-6.8
		c3.8,3.6,5.7,7.6,2.9,13.7c4.9,0,8.9,0,13.9,0c-2.6-5.8-1.2-9.8,2.5-13.1c2.7,5.5,2.7,5.5-2.1,12.3c3.5-1.1,6.3-2,9.8-3.1
		c-3.9-4.1-3.3-8.1-0.9-11.9c4,3.1,4.4,5,2.1,9.2c-0.4,0.7-0.3,1.7-0.6,3.2c-1.5,0.6-3.8,1.6-6.1,2.6c5.8,0.2,9.7,2.7,11.2,8.6
		c-5.1-1.2-12.7,1.6-12.1-8.6c-3.3,0.9-6,1.6-9,2.5c1.9,2.1,3.4,3.8,4.9,5.6c-0.3,0.4-0.7,0.7-1,1.1c-1.8-1.7-3.7-3.4-5.7-5.3
		c-2,1.9-3.8,3.6-5.7,5.3c-0.3-0.4-0.7-0.7-1-1.1c1.5-1.7,3-3.4,4.9-5.5c-2.8-0.8-5.4-1.6-7.7-2.3c-1.6,2.6-2.5,5.8-4.5,7
		c-2.3,1.4-5.7,1-8.7,1.5c2.1-5.6,2.4-5.8,11.5-8.5c-1.9-0.8-3.3-1.4-4.7-2c-1.4-0.6-2.8-1.2-4.7-2.1c-1.8,8.8-7.9,5-13.2,4.7
		c2.8-4.9,6.6-6.7,12.1-5.1c-0.9-1-1.8-2.1-2.7-3.1c0,0-0.1,0.1-0.1,0.1C1385.5,529,1388.2,530.4,1390.8,531.7L1390.8,531.7z"/>
	<path fill="#BE1622" d="M1445.5,505.4c-3.3-2.3-6.8-4.4-6.6-9.4c3.4,0.9,7.1,1.4,6.5,6.8c2.5-3.5,1.7-5.3-1.4-7.1
		c-2.3-1.3-3.8-3.9-6.3-6.6c7.2,0.8,7.2,0.8,9.2,4.8c-0.2-1.2-0.4-2.4-0.6-3.7c0,0-0.1,0-0.1,0c0.6-0.3,1.9-0.7,1.9-0.9
		c-0.6-4.1,2.8-5.6,5.5-8.7c-0.2,3.2-0.3,5.6-0.6,7.9c-0.2,1-0.9,2.5-1.6,2.7c-4.9,1.2-3.9,4.8-3.4,8.4c0.8-4.6,3.7-7,7.8-8.2
		c-0.4,6.4-1.5,7.9-7,9.8c-0.8,0.3-1.3,1.6-2,2.4C1446.4,504.4,1445.9,504.9,1445.5,505.4C1445.5,505.4,1445.5,505.4,1445.5,505.4z"
		/>
	<path fill="#BE1622" d="M1375.1,519.9c-1.3-0.4-3.1-1.4-3.8-0.9c-3.3,2.2-5.5,0.9-7.7-1.5c-1.1-1.2-2.4-2.2-3.6-3.4
		c4.7-1.8,8.6-1.3,12.1,2.4c-0.8-1.8-1.5-3.7-2.5-5.4c-0.3-0.5-1.6-1.1-2.2-0.9c-3.9,1.5-5.7-0.7-7.2-3.7c-0.7-1.3-1.6-2.6-2.4-3.9
		c6.9-1.2,9,4.8,13.4,8.2c-0.7-4.6,1.9-6.7,6.2-7.8c-0.7,3.4-0.1,7.1-4.2,8.9c-0.6,0.3-0.9,2.1-0.6,3c0.5,1.8,1.6,3.4,2.5,5
		L1375.1,519.9z"/>
	<path fill="#BE1622" d="M1375,520.1c0.2-0.6,0.8-1.3,0.7-1.7c-2-4.6,0.7-6.9,4.2-8.8c1.4,4.8,1.1,5.7-4.2,11.8
		c1.9,1.5,3.9,3,5.9,4.5c-2.5-4.9-0.7-8.2,3.8-10.9c0.7,3.9,1.7,7.6-2,10.6c-0.5,0.4-0.4,1.4-0.6,2.1c0,0,0.1-0.1,0.1-0.1
		c-1.3-0.7-2.6-1.4-4.3-2.4c-4.1,7.7-8.8,2.2-14.2,0.4c2.7-1.3,4.8-3,7-3.1c2-0.1,4.2,1.4,6.8,2.3c-1.2-2-2.1-3.4-3-4.9
		C1375.1,519.9,1375,520.1,1375,520.1z"/>
	<path fill="#BE1622" d="M1444.4,510.6c-0.6,2.1-1.2,4.2-2.1,7.5c3.5-4.6,7.2-6.3,12.2-3.8c-2,1.8-3.9,3.7-6,5.4
		c-0.6,0.5-1.9,0.8-2.5,0.4c-3.4-2.2-6.1-2.2-8.2,1.8c0.2-0.6,0.4-1.3,0.5-1.9c0,0-0.1,0.1-0.1,0.1c1.6-2.1,3.3-4.1,5.3-6.7
		c-4.6-2.2-6.6-5.6-6.1-10.4c3.2,1.4,6.8,2.4,5.7,7.3C1443.1,510.3,1444,510.5,1444.4,510.6L1444.4,510.6z"/>
	<path fill="#BE1622" d="M1367.6,492.5c-0.1,0.6-0.1,1.2-0.2,1.8c1.3-3.9,4.4-4.8,8-5c-0.7,4.9-4.1,7.1-8.5,8.1
		c0.3-2.6-0.2-4.7-3.5-5.9c-1.1-0.4-1.7-3.1-2.1-4.8c-0.3-1.5-0.1-3.2-0.1-5.2c3.1,2.5,5.8,4.6,5.4,8.7
		C1366.5,490.9,1367.3,491.8,1367.6,492.5C1367.6,492.5,1367.6,492.5,1367.6,492.5z"/>
	<path fill="#BE1622" d="M1446.3,490.4c-0.3-0.5-0.7-1.3-1-1.3c-4.1-0.1-5.9-3.1-8-6.9c3,0.7,5.4,1.2,7.7,1.8
		c0.7-3.1,1.6-7.1,2.5-11c0.4,0.1,0.9,0.1,1.3,0.2c0.5,2,1,4.1,1.3,6.2c0.1,1,0.2,2.6-0.3,2.9
		C1446.7,484.1,1446.8,487.4,1446.3,490.4C1446.3,490.4,1446.3,490.4,1446.3,490.4z"/>
	<path fill="#BE1622" d="M1441.5,473.8c0.2-2.7,0.4-5.4,0.6-8.1c2.6,3.7,6.1,7,2.1,11.6c-0.7,0.7-0.1,2.5-0.1,3.9
		c-4.3,1.5-6.7-1.3-9.5-5c2.9,0.2,5.1,0.3,7.6,0.4c0-0.1,0-0.8,0-1.5C1442,474.6,1441.7,474.2,1441.5,473.8z"/>
	<path fill="#BE1622" d="M1441.5,473.8c0.2,0.4,0.5,0.8,0.7,1.2c-4.1,0.3-8.1,0.3-11-4.2c2.2-0.2,4.1-0.5,6.3-0.7
		c-0.2-0.6-0.4-1.2-0.7-1.9c-0.2-0.2-0.4-0.5-0.5-0.7c-0.3-2.5-0.5-4.9-0.9-8.4c3.4,3.8,7,6.3,4.6,11.4
		C1439.6,471.2,1440.9,472.7,1441.5,473.8z"/>
	<path fill="#BE1622" d="M1372.8,474.1c0.7-1.2,2.3-2.9,2-3.4c-2.9-5,1-7.4,4.4-10.3c-0.4,2.7-0.7,5.3-1.1,8c0,0,0.1-0.1,0.1-0.1
		c-0.6,0.3-1.2,0.6-1.8,0.8c0.2,0.3,0.4,0.6,0.6,0.9c2,0.2,4,0.5,6.2,0.8c-3.7,4.8-5.8,5.4-10.2,3.2
		C1372.9,474,1372.8,474.1,1372.8,474.1z"/>
	<path fill="#BE1622" d="M1450.8,525.4c-3.8,1.6-6.5,3.6-9.1,3.5c-2.4-0.1-4.7-2.5-7.2-3.9c2.7-0.9,5.1-2.4,7.5-2.3
		C1444.6,522.7,1447.2,524.2,1450.8,525.4z"/>
	<path fill="#BE1622" d="M1428.5,531.7c5.4-2.5,9.4-1.3,12.3,3.5C1434.1,538.5,1430.6,537.5,1428.5,531.7z"/>
	<path fill="#BE1622" d="M1358.3,491.4c5.6,2.4,9.7,7.6,9.6,11c-0.2-0.1-1.1-1.1-1.9-1c-5.3,0.3-6-3.7-7-7.4
		C1358.7,493.2,1358.5,492.4,1358.3,491.4z"/>
	<path fill="#BE1622" d="M1436.3,467.5c0.2,0.2,0.4,0.5,0.5,0.7c-3.9,2.9-7,0.9-10.4-1.8c1.7-0.6,3.2-1,4.6-1.5
		c-0.7-1.8-1.3-3.5-2.2-5.8c3.3,1.5,6,2.6,5.7,6.4C1434.6,466.2,1435.7,466.9,1436.3,467.5z"/>
	<path fill="#BE1622" d="M1378.1,468.4c0.6-0.9,1.6-1.7,1.9-2.7c1.1-4.1,1.1-4.2,5.8-6.7c-0.9,2.3-1.6,4.1-2.2,5.9
		c1.3,0.4,2.8,0.8,4.3,1.3C1384.1,470.3,1382.6,470.6,1378.1,468.4C1378.1,468.3,1378.1,468.4,1378.1,468.4z"/>
	<path fill="#BE1622" d="M1369.8,482.3c-0.1,0.9-0.2,1.8-0.3,2.8c-0.2,0.6-0.5,1.2-0.7,1.8c-0.4-0.6-0.7-1.4-1.3-1.8
		c-5.5-3.5-2.6-7.9-1-12.2c1.1,3.2,2.2,6.4,3.3,9.6C1369.9,482.4,1369.8,482.3,1369.8,482.3z"/>
	<path fill="#BE1622" d="M1390.9,531.7c-4.6-5.8-4.6-5.8-0.1-12.1c2.9,6,2.9,6,0,12C1390.8,531.7,1390.9,531.7,1390.9,531.7z"/>
	<path fill="#BE1622" d="M1432,525.9c-4.6-2.5-3.7-6.5-2.7-10.5C1434.8,518.4,1435.3,520.2,1432,525.9z"/>
	<path fill="#BE1622" d="M1371.6,478.2c-4.3-4.8-4.3-5.2,0-12.3c0.4,0,0.8,0,1.1,0c0,2.7,0,5.5,0,8.2c0,0,0.1-0.1,0.1-0.2
		c-0.1,1.1-0.2,2.1-0.4,3.2C1372.2,477.5,1371.9,477.9,1371.6,478.2z"/>
	<path fill="#BE1622" d="M1438.3,520c-4.9-2.2-4.3-6.5-4.2-10.6C1440.2,512.8,1440.5,513.3,1438.3,520
		C1438.2,520,1438.3,520,1438.3,520z"/>
	<path fill="#BE1622" d="M1371.6,478.2c0.3-0.4,0.6-0.7,0.9-1.1c2.2-0.4,4.5-0.9,7.2-1.4c-2,5.3-6.2,5.5-9.9,6.6
		c0,0,0.1,0.1,0.1,0.1C1370.5,481,1371.1,479.6,1371.6,478.2z"/>
	<path fill="#BE1622" d="M1368.8,486.8c0.2-0.6,0.5-1.2,0.7-1.8c2.3-1.1,4.5-2.1,6.8-3.2c0.2,0.4,0.4,0.7,0.6,1.1
		c-1.8,2.6-3,5.8-7.1,6.1c-0.8,0.1-1.5,2.2-2.2,3.4c0,0,0.1,0.1,0.1,0.1C1368,490.7,1368.4,488.7,1368.8,486.8z"/>
	<path fill="#BE1622" d="M1369.1,504.3c0-6.2,0.2-6.5,6.8-8.1C1374.8,500.1,1374.2,504,1369.1,504.3z"/>
</g>
<g>
	<path fill="#BE1622" d="M1663.8,480.8c2.8,1.1,5.6,2.3,9.4,3.8c-2-2.8-3.9-4.5-4.2-6.4c-0.3-2.1,0.9-4.4,1.5-6.8
		c3.8,3.6,5.7,7.6,2.9,13.7c4.9,0,8.9,0,13.9,0c-2.6-5.8-1.2-9.8,2.5-13.1c2.7,5.5,2.7,5.5-2.1,12.3c3.5-1.1,6.3-2,9.8-3.1
		c-3.9-4.1-3.3-8.1-0.9-11.9c4,3.1,4.4,5,2.1,9.2c-0.4,0.7-0.3,1.7-0.6,3.2c-1.5,0.6-3.8,1.6-6.1,2.6c5.8,0.2,9.7,2.7,11.2,8.6
		c-5.1-1.2-12.7,1.6-12.1-8.6c-3.3,0.9-6,1.6-9,2.5c1.9,2.1,3.4,3.8,4.9,5.6c-0.3,0.4-0.7,0.7-1,1.1c-1.8-1.7-3.7-3.4-5.7-5.3
		c-2,1.9-3.8,3.6-5.7,5.3c-0.3-0.4-0.7-0.7-1-1.1c1.5-1.7,3-3.4,4.9-5.5c-2.8-0.8-5.4-1.6-7.7-2.3c-1.6,2.6-2.5,5.8-4.5,7
		c-2.3,1.4-5.7,1-8.7,1.5c2.1-5.6,2.4-5.8,11.5-8.5c-1.9-0.8-3.3-1.4-4.7-2c-1.4-0.6-2.8-1.2-4.7-2.1c-1.8,8.8-7.9,5-13.2,4.7
		c2.8-4.9,6.6-6.7,12.1-5.1c-0.9-1-1.8-2.1-2.7-3.1c0,0-0.1,0.1-0.1,0.1C1658.5,478.2,1661.2,479.5,1663.8,480.8L1663.8,480.8z"/>
	<path fill="#BE1622" d="M1718.5,454.6c-3.3-2.3-6.8-4.4-6.6-9.4c3.4,0.9,7.1,1.4,6.5,6.8c2.5-3.5,1.7-5.3-1.4-7.1
		c-2.3-1.3-3.8-3.9-6.3-6.6c7.2,0.8,7.2,0.8,9.2,4.8c-0.2-1.2-0.4-2.4-0.6-3.7c0,0-0.1,0-0.1,0c0.6-0.3,1.9-0.7,1.9-0.9
		c-0.6-4.1,2.8-5.6,5.5-8.7c-0.2,3.2-0.3,5.6-0.6,7.9c-0.2,1-0.9,2.5-1.6,2.7c-4.9,1.2-3.9,4.8-3.4,8.4c0.8-4.6,3.7-7,7.8-8.2
		c-0.4,6.4-1.5,7.9-7,9.8c-0.8,0.3-1.3,1.6-2,2.4C1719.5,453.5,1719,454,1718.5,454.6C1718.5,454.6,1718.5,454.6,1718.5,454.6z"/>
	<path fill="#BE1622" d="M1648.1,469.1c-1.3-0.4-3.1-1.4-3.8-0.9c-3.3,2.2-5.5,0.9-7.7-1.5c-1.1-1.2-2.4-2.2-3.6-3.4
		c4.7-1.8,8.6-1.3,12.1,2.4c-0.8-1.8-1.5-3.7-2.5-5.4c-0.3-0.5-1.6-1.1-2.2-0.9c-3.9,1.5-5.7-0.7-7.2-3.7c-0.7-1.3-1.6-2.6-2.4-3.9
		c6.9-1.2,9,4.8,13.4,8.2c-0.7-4.6,1.9-6.7,6.2-7.8c-0.7,3.4-0.1,7.1-4.2,8.9c-0.6,0.3-0.9,2.1-0.6,3c0.5,1.8,1.6,3.4,2.5,5
		L1648.1,469.1z"/>
	<path fill="#BE1622" d="M1648.1,469.2c0.2-0.6,0.8-1.3,0.7-1.7c-2-4.6,0.7-6.9,4.2-8.8c1.4,4.8,1.1,5.7-4.2,11.8
		c1.9,1.5,3.9,3,5.9,4.5c-2.5-4.9-0.7-8.2,3.8-10.9c0.7,3.9,1.7,7.6-2,10.6c-0.5,0.4-0.4,1.4-0.6,2.1c0,0,0.1-0.1,0.1-0.1
		c-1.3-0.7-2.6-1.4-4.3-2.4c-4.1,7.7-8.8,2.2-14.2,0.4c2.7-1.3,4.8-3,7-3.1c2-0.1,4.2,1.4,6.8,2.3c-1.2-2-2.1-3.4-3-4.9
		C1648.1,469.1,1648.1,469.2,1648.1,469.2z"/>
	<path fill="#BE1622" d="M1717.4,459.7c-0.6,2.1-1.2,4.2-2.1,7.5c3.5-4.6,7.2-6.3,12.2-3.8c-2,1.8-3.9,3.7-6,5.4
		c-0.6,0.5-1.9,0.8-2.5,0.4c-3.4-2.2-6.1-2.2-8.2,1.8c0.2-0.6,0.4-1.3,0.5-1.9c0,0-0.1,0.1-0.1,0.1c1.6-2.1,3.3-4.1,5.3-6.7
		c-4.6-2.2-6.6-5.6-6.1-10.4c3.2,1.4,6.8,2.4,5.7,7.3C1716.2,459.4,1717.1,459.7,1717.4,459.7L1717.4,459.7z"/>
	<path fill="#BE1622" d="M1640.6,441.6c-0.1,0.6-0.1,1.2-0.2,1.8c1.3-3.9,4.4-4.8,8-5c-0.7,4.9-4.1,7.1-8.5,8.1
		c0.3-2.6-0.2-4.7-3.5-5.9c-1.1-0.4-1.7-3.1-2.1-4.8c-0.3-1.5-0.1-3.2-0.1-5.2c3.1,2.5,5.8,4.6,5.4,8.7
		C1639.6,440.1,1640.3,440.9,1640.6,441.6C1640.7,441.7,1640.6,441.6,1640.6,441.6z"/>
	<path fill="#BE1622" d="M1719.4,439.6c-0.3-0.5-0.7-1.3-1-1.3c-4.1-0.1-5.9-3.1-8-6.9c3,0.7,5.4,1.2,7.7,1.8
		c0.7-3.1,1.6-7.1,2.5-11c0.4,0.1,0.9,0.1,1.3,0.2c0.5,2,1,4.1,1.3,6.2c0.1,1,0.2,2.6-0.3,2.9
		C1719.7,433.3,1719.9,436.5,1719.4,439.6C1719.3,439.6,1719.4,439.6,1719.4,439.6z"/>
	<path fill="#BE1622" d="M1714.5,423c0.2-2.7,0.4-5.4,0.6-8.1c2.6,3.7,6.1,7,2.1,11.6c-0.7,0.7-0.1,2.5-0.1,3.9
		c-4.3,1.5-6.7-1.3-9.5-5c2.9,0.2,5.1,0.3,7.6,0.4c0-0.1,0-0.8,0-1.5C1715,423.8,1714.8,423.4,1714.5,423z"/>
	<path fill="#BE1622" d="M1714.5,423c0.2,0.4,0.5,0.8,0.7,1.2c-4.1,0.3-8.1,0.3-11-4.2c2.2-0.2,4.1-0.5,6.3-0.7
		c-0.2-0.6-0.4-1.2-0.7-1.9c-0.2-0.2-0.4-0.5-0.5-0.7c-0.3-2.5-0.5-4.9-0.9-8.4c3.4,3.8,7,6.3,4.6,11.4
		C1712.6,420.4,1714,421.9,1714.5,423z"/>
	<path fill="#BE1622" d="M1645.8,423.3c0.7-1.2,2.3-2.9,2-3.4c-2.9-5,1-7.4,4.4-10.3c-0.4,2.7-0.7,5.3-1.1,8c0,0,0.1-0.1,0.1-0.1
		c-0.6,0.3-1.2,0.6-1.8,0.8c0.2,0.3,0.4,0.6,0.6,0.9c2,0.2,4,0.5,6.2,0.8c-3.7,4.8-5.8,5.4-10.2,3.2
		C1645.9,423.2,1645.8,423.3,1645.8,423.3z"/>
	<path fill="#BE1622" d="M1723.8,474.6c-3.8,1.6-6.5,3.6-9.1,3.5c-2.4-0.1-4.7-2.5-7.2-3.9c2.7-0.9,5.1-2.4,7.5-2.3
		C1717.6,471.9,1720.2,473.4,1723.8,474.6z"/>
	<path fill="#BE1622" d="M1701.6,480.9c5.4-2.5,9.4-1.3,12.3,3.5C1707.2,487.7,1703.6,486.7,1701.6,480.9z"/>
	<path fill="#BE1622" d="M1631.3,440.6c5.6,2.4,9.7,7.6,9.6,11c-0.2-0.1-1.1-1.1-1.9-1c-5.3,0.3-6-3.7-7-7.4
		C1631.7,442.4,1631.6,441.6,1631.3,440.6z"/>
	<path fill="#BE1622" d="M1709.3,416.7c0.2,0.2,0.4,0.5,0.5,0.7c-3.9,2.9-7,0.9-10.4-1.8c1.7-0.6,3.2-1,4.6-1.5
		c-0.7-1.8-1.3-3.5-2.2-5.8c3.3,1.5,6,2.6,5.7,6.4C1707.6,415.4,1708.7,416.1,1709.3,416.7z"/>
	<path fill="#BE1622" d="M1651.1,417.6c0.6-0.9,1.6-1.7,1.9-2.7c1.1-4.1,1.1-4.2,5.8-6.7c-0.9,2.3-1.6,4.1-2.3,5.9
		c1.3,0.4,2.8,0.8,4.3,1.3C1657.1,419.4,1655.6,419.8,1651.1,417.6C1651.1,417.5,1651.1,417.6,1651.1,417.6z"/>
	<path fill="#BE1622" d="M1642.8,431.5c-0.1,0.9-0.2,1.8-0.3,2.8c-0.2,0.6-0.5,1.2-0.7,1.8c-0.4-0.6-0.7-1.4-1.3-1.8
		c-5.5-3.5-2.6-7.9-1-12.2c1.1,3.2,2.2,6.4,3.3,9.6C1642.9,431.6,1642.8,431.5,1642.8,431.5z"/>
	<path fill="#BE1622" d="M1663.9,480.9c-4.6-5.8-4.6-5.8-0.1-12.1c2.9,6,2.9,6,0,12C1663.8,480.8,1663.9,480.9,1663.9,480.9z"/>
	<path fill="#BE1622" d="M1705,475c-4.6-2.5-3.7-6.5-2.7-10.5C1707.8,467.6,1708.3,469.4,1705,475z"/>
	<path fill="#BE1622" d="M1644.7,427.4c-4.3-4.8-4.3-5.2,0-12.3c0.4,0,0.8,0,1.1,0c0,2.7,0,5.5,0,8.2c0,0,0.1-0.1,0.1-0.2
		c-0.1,1.1-0.2,2.1-0.4,3.2C1645.3,426.7,1645,427,1644.7,427.4z"/>
	<path fill="#BE1622" d="M1711.3,469.1c-4.9-2.2-4.3-6.5-4.2-10.6C1713.3,461.9,1713.5,462.5,1711.3,469.1
		C1711.3,469.2,1711.3,469.1,1711.3,469.1z"/>
	<path fill="#BE1622" d="M1644.7,427.4c0.3-0.4,0.6-0.7,0.9-1.1c2.2-0.4,4.5-0.9,7.2-1.4c-2,5.3-6.2,5.5-9.9,6.6
		c0,0,0.1,0.1,0.1,0.1C1643.5,430.2,1644.1,428.8,1644.7,427.4z"/>
	<path fill="#BE1622" d="M1641.9,436c0.2-0.6,0.5-1.2,0.7-1.8c2.3-1.1,4.5-2.1,6.8-3.2c0.2,0.4,0.4,0.7,0.6,1.1
		c-1.8,2.6-3,5.8-7.1,6.1c-0.8,0.1-1.5,2.2-2.2,3.4c0,0,0.1,0.1,0.1,0.1C1641.1,439.8,1641.5,437.9,1641.9,436z"/>
	<path fill="#BE1622" d="M1642.1,453.5c0-6.2,0.2-6.5,6.8-8.1C1647.8,449.2,1647.2,453.2,1642.1,453.5z"/>
</g>
<g>
	<path fill="#BE1622" d="M1712.8,358.8c2.8,1.1,5.6,2.3,9.4,3.8c-2-2.8-3.9-4.5-4.2-6.4c-0.3-2.1,0.9-4.4,1.5-6.8
		c3.8,3.6,5.7,7.6,2.9,13.7c4.9,0,8.9,0,13.9,0c-2.6-5.8-1.2-9.8,2.5-13.1c2.7,5.5,2.7,5.5-2.1,12.3c3.5-1.1,6.3-2,9.8-3.1
		c-3.9-4.1-3.3-8.1-0.9-11.9c4,3.1,4.4,5,2.1,9.2c-0.4,0.7-0.3,1.7-0.6,3.2c-1.5,0.6-3.8,1.6-6.1,2.6c5.8,0.2,9.7,2.7,11.2,8.6
		c-5.1-1.2-12.7,1.6-12.1-8.6c-3.3,0.9-6,1.6-9,2.5c1.9,2.1,3.4,3.8,4.9,5.6c-0.3,0.4-0.7,0.7-1,1.1c-1.8-1.7-3.7-3.4-5.7-5.3
		c-2,1.9-3.8,3.6-5.7,5.3c-0.3-0.4-0.7-0.7-1-1.1c1.5-1.7,3-3.4,4.9-5.5c-2.8-0.8-5.4-1.6-7.7-2.3c-1.6,2.6-2.5,5.8-4.5,7
		c-2.3,1.4-5.7,1-8.7,1.5c2.1-5.6,2.4-5.8,11.5-8.5c-1.9-0.8-3.3-1.4-4.7-2c-1.4-0.6-2.8-1.2-4.7-2.1c-1.8,8.8-7.9,5-13.2,4.7
		c2.8-4.9,6.6-6.7,12.1-5.1c-0.9-1-1.8-2.1-2.7-3.1c0,0-0.1,0.1-0.1,0.1C1707.5,356.1,1710.2,357.5,1712.8,358.8L1712.8,358.8z"/>
	<path fill="#BE1622" d="M1767.6,332.6c-3.3-2.3-6.8-4.4-6.6-9.4c3.4,0.9,7.1,1.4,6.5,6.8c2.5-3.5,1.7-5.3-1.4-7.1
		c-2.3-1.3-3.8-3.9-6.3-6.6c7.2,0.8,7.2,0.8,9.2,4.8c-0.2-1.2-0.4-2.4-0.6-3.7c0,0-0.1,0-0.1,0c0.6-0.3,1.9-0.7,1.9-0.9
		c-0.6-4.1,2.8-5.6,5.5-8.7c-0.2,3.2-0.3,5.6-0.6,7.9c-0.2,1-0.9,2.5-1.6,2.7c-4.9,1.2-3.9,4.8-3.4,8.4c0.8-4.6,3.7-7,7.8-8.2
		c-0.4,6.4-1.5,7.9-7,9.8c-0.8,0.3-1.3,1.6-2,2.4C1768.5,331.5,1768,332,1767.6,332.6C1767.5,332.5,1767.6,332.6,1767.6,332.6z"/>
	<path fill="#BE1622" d="M1697.2,347.1c-1.3-0.4-3.1-1.4-3.8-0.9c-3.3,2.2-5.5,0.9-7.7-1.5c-1.1-1.2-2.4-2.2-3.6-3.4
		c4.7-1.8,8.6-1.3,12.1,2.4c-0.8-1.8-1.5-3.7-2.5-5.4c-0.3-0.5-1.6-1.1-2.2-0.9c-3.9,1.5-5.7-0.7-7.2-3.7c-0.7-1.3-1.6-2.6-2.4-3.9
		c6.9-1.2,9,4.8,13.4,8.2c-0.7-4.6,1.9-6.7,6.2-7.8c-0.7,3.4-0.1,7.1-4.2,8.9c-0.6,0.3-0.9,2.1-0.6,3c0.5,1.8,1.6,3.4,2.5,5
		L1697.2,347.1z"/>
	<path fill="#BE1622" d="M1697.1,347.2c0.2-0.6,0.8-1.3,0.7-1.7c-2-4.6,0.7-6.9,4.2-8.8c1.4,4.8,1.1,5.7-4.2,11.8
		c1.9,1.5,3.9,3,5.9,4.5c-2.5-4.9-0.7-8.2,3.8-10.9c0.7,3.9,1.7,7.6-2,10.6c-0.5,0.4-0.4,1.4-0.6,2.1c0,0,0.1-0.1,0.1-0.1
		c-1.3-0.7-2.6-1.4-4.3-2.4c-4.1,7.7-8.8,2.2-14.2,0.4c2.7-1.3,4.8-3,7-3.1c2-0.1,4.2,1.4,6.8,2.3c-1.2-2-2.1-3.4-3-4.9
		C1697.2,347.1,1697.1,347.2,1697.1,347.2z"/>
	<path fill="#BE1622" d="M1766.5,337.7c-0.6,2.1-1.2,4.2-2.1,7.5c3.5-4.6,7.2-6.3,12.2-3.8c-2,1.8-3.9,3.7-6,5.4
		c-0.6,0.5-1.9,0.8-2.5,0.4c-3.4-2.2-6.1-2.2-8.2,1.8c0.2-0.6,0.4-1.3,0.5-1.9c0,0-0.1,0.1-0.1,0.1c1.6-2.1,3.3-4.1,5.3-6.7
		c-4.6-2.2-6.6-5.6-6.1-10.4c3.2,1.4,6.8,2.4,5.7,7.3C1765.2,337.4,1766.1,337.6,1766.5,337.7L1766.5,337.7z"/>
	<path fill="#BE1622" d="M1689.7,319.6c-0.1,0.6-0.1,1.2-0.2,1.8c1.3-3.9,4.4-4.8,8-5c-0.7,4.9-4.1,7.1-8.5,8.1
		c0.3-2.6-0.2-4.7-3.5-5.9c-1.1-0.4-1.7-3.1-2.1-4.8c-0.3-1.5-0.1-3.2-0.1-5.2c3.1,2.5,5.8,4.6,5.4,8.7
		C1688.6,318,1689.4,318.9,1689.7,319.6C1689.7,319.6,1689.7,319.6,1689.7,319.6z"/>
	<path fill="#BE1622" d="M1768.4,317.5c-0.3-0.5-0.7-1.3-1-1.3c-4.1-0.1-5.9-3.1-8-6.9c3,0.7,5.4,1.2,7.7,1.8
		c0.7-3.1,1.6-7.1,2.5-11c0.4,0.1,0.9,0.1,1.3,0.2c0.5,2,1,4.1,1.3,6.2c0.1,1,0.2,2.6-0.3,2.9
		C1768.7,311.2,1768.9,314.5,1768.4,317.5C1768.4,317.5,1768.4,317.5,1768.4,317.5z"/>
	<path fill="#BE1622" d="M1763.6,300.9c0.2-2.7,0.4-5.4,0.6-8.1c2.6,3.7,6.1,7,2.1,11.6c-0.7,0.7-0.1,2.5-0.1,3.9
		c-4.3,1.5-6.7-1.3-9.5-5c2.9,0.2,5.1,0.3,7.6,0.4c0-0.1,0-0.8,0-1.5C1764,301.7,1763.8,301.3,1763.6,300.9z"/>
	<path fill="#BE1622" d="M1763.6,300.9c0.2,0.4,0.5,0.8,0.7,1.2c-4.1,0.3-8.1,0.3-11-4.2c2.2-0.2,4.1-0.5,6.3-0.7
		c-0.2-0.6-0.4-1.2-0.7-1.9c-0.2-0.2-0.4-0.5-0.5-0.7c-0.3-2.5-0.5-4.9-0.9-8.4c3.4,3.8,7,6.3,4.6,11.4
		C1761.7,298.3,1763,299.8,1763.6,300.9z"/>
	<path fill="#BE1622" d="M1694.9,301.2c0.7-1.2,2.3-2.9,2-3.4c-2.9-5,1-7.4,4.4-10.3c-0.4,2.7-0.7,5.3-1.1,8c0,0,0.1-0.1,0.1-0.1
		c-0.6,0.3-1.2,0.6-1.8,0.8c0.2,0.3,0.4,0.6,0.6,0.9c2,0.2,4,0.5,6.2,0.8c-3.7,4.8-5.8,5.4-10.2,3.2
		C1695,301.1,1694.9,301.2,1694.9,301.2z"/>
	<path fill="#BE1622" d="M1772.8,352.5c-3.8,1.6-6.5,3.6-9.1,3.5c-2.4-0.1-4.7-2.5-7.2-3.9c2.7-0.9,5.1-2.4,7.5-2.3
		C1766.7,349.8,1769.2,351.3,1772.8,352.5z"/>
	<path fill="#BE1622" d="M1750.6,358.8c5.4-2.5,9.4-1.3,12.3,3.5C1756.2,365.7,1752.6,364.7,1750.6,358.8z"/>
	<path fill="#BE1622" d="M1680.4,318.6c5.6,2.4,9.7,7.6,9.6,11c-0.2-0.1-1.1-1.1-1.9-1c-5.3,0.3-6-3.7-7-7.4
		C1680.8,320.3,1680.6,319.5,1680.4,318.6z"/>
	<path fill="#BE1622" d="M1758.4,294.6c0.2,0.2,0.4,0.5,0.5,0.7c-3.9,2.9-7,0.9-10.4-1.8c1.7-0.6,3.2-1,4.6-1.5
		c-0.7-1.8-1.3-3.5-2.2-5.8c3.3,1.5,6,2.6,5.7,6.4C1756.6,293.3,1757.8,294,1758.4,294.6z"/>
	<path fill="#BE1622" d="M1700.1,295.5c0.6-0.9,1.6-1.7,1.9-2.7c1.1-4.1,1.1-4.2,5.8-6.7c-0.9,2.3-1.6,4.1-2.2,5.9
		c1.3,0.4,2.8,0.8,4.3,1.3C1706.1,297.4,1704.7,297.7,1700.1,295.5C1700.2,295.4,1700.1,295.5,1700.1,295.5z"/>
	<path fill="#BE1622" d="M1691.9,309.4c-0.1,0.9-0.2,1.8-0.3,2.8c-0.2,0.6-0.5,1.2-0.7,1.8c-0.4-0.6-0.7-1.4-1.3-1.8
		c-5.5-3.5-2.6-7.9-1-12.2c1.1,3.2,2.2,6.4,3.3,9.6C1692,309.5,1691.9,309.4,1691.9,309.4z"/>
	<path fill="#BE1622" d="M1712.9,358.8c-4.6-5.8-4.6-5.8-0.1-12.1c2.9,6,2.9,6,0,12C1712.8,358.8,1712.9,358.8,1712.9,358.8z"/>
	<path fill="#BE1622" d="M1754.1,353c-4.6-2.5-3.7-6.5-2.7-10.5C1756.9,345.5,1757.4,347.3,1754.1,353z"/>
	<path fill="#BE1622" d="M1693.7,305.3c-4.3-4.8-4.3-5.2,0-12.3c0.4,0,0.8,0,1.1,0c0,2.7,0,5.5,0,8.2c0,0,0.1-0.1,0.1-0.2
		c-0.1,1.1-0.2,2.1-0.4,3.2C1694.3,304.6,1694,305,1693.7,305.3z"/>
	<path fill="#BE1622" d="M1760.4,347.1c-4.9-2.2-4.3-6.5-4.2-10.6C1762.3,339.9,1762.5,340.4,1760.4,347.1
		C1760.3,347.1,1760.4,347.1,1760.4,347.1z"/>
	<path fill="#BE1622" d="M1693.7,305.3c0.3-0.4,0.6-0.7,0.9-1.1c2.2-0.4,4.5-0.9,7.2-1.4c-2,5.3-6.2,5.5-9.9,6.6
		c0,0,0.1,0.1,0.1,0.1C1692.6,308.2,1693.1,306.7,1693.7,305.3z"/>
	<path fill="#BE1622" d="M1690.9,314c0.2-0.6,0.5-1.2,0.7-1.8c2.3-1.1,4.5-2.1,6.8-3.2c0.2,0.4,0.4,0.7,0.6,1.1
		c-1.8,2.6-3,5.8-7.1,6.1c-0.8,0.1-1.5,2.2-2.2,3.4c0,0,0.1,0.1,0.1,0.1C1690.1,317.8,1690.5,315.9,1690.9,314z"/>
	<path fill="#BE1622" d="M1691.2,331.4c0-6.2,0.2-6.5,6.8-8.1C1696.9,327.2,1696.3,331.1,1691.2,331.4z"/>
</g>
</svg>
